<?xml version="1.0" encoding="utf-8"?>
<!-- Generator: Adobe Illustrator 23.0.1, SVG Export Plug-In . SVG Version: 6.00 Build 0)  -->
<svg version="1.1" id="icon10" xmlns="http://www.w3.org/2000/svg" xmlns:xlink="http://www.w3.org/1999/xlink" x="0px" y="0px"
	 viewBox="0 0 300 400" style="enable-background:new 0 0 300 400;" xml:space="preserve">
<style type="text/css">
	.st0{fill:#FBFF73;}
</style>
<g id="colour">
	<g>
		<g>
			<path class="st0" d="M134,147.7c5.4-2.6,11.1-3.5,17-3c0-1,0-2,0-3c-8.9,0.5-17.7-0.1-26.4-1.7c-1.9-0.3-2.7,2.5-0.8,2.9
				c9,1.6,18.1,2.3,27.2,1.8c2-0.1,1.9-2.8,0-3c-6.5-0.6-12.6,0.6-18.5,3.4C130.7,146,132.2,148.6,134,147.7L134,147.7z"/>
		</g>
	</g>
	<g>
		<g>
			<path class="st0" d="M125.4,116.2c-22.3-0.8-44.9,2.3-61.9,17.9c-3.9,3.5-7.1,7.9-9.8,12.4c-0.7,1.2-2.2,5.2-3.4,5.7
				c1.7-2.1,1.9-2.2,0.4-0.5c-0.7,0.8-1.4,1.5-2.1,2.3c-5.5,6.5-8.8,13.9-8.6,22.6c0,0.5,0.5,6.7,0.5,6.7c0.7-3.7,0.8-4.4,0.2-2.2
				c2.3-6.9,7.3-10.6,15.1-11.2c-11.9,0.3-21.1,9.6-21.5,21.5c-0.5,14.2,0.5,27.8,6.4,40.9c4.9,11,13.5,20.1,21.5,28.9
				c4.3,4.7,8.3,9.8,13.9,13.1c6,3.6,12.9,4.7,19.6,6c14.2,2.6,27.5,3.7,41.8,1.2c49.8-8.7,82.4-65.9,62.6-112.9
				c-2.7-6.4-7.3-11.9-12.6-16.2c-2.8-2.3,1.1,1.9,1.6,3c0.7,1.5,1.1,3.2,1,4.9c0.1-1,0.2-1.9,0.3-2.9c0.1-6.6-2.6-12.9-7-17.7
				c-9.8-10.6-24.3-17.5-37.6-22.5c-10.6-3.9-24,4.4-26.4,15c-2.8,12.2,3.7,22.2,15,26.4c1,0.4,2.3,0.7,3.2,1.2
				c-3.9-2.4-0.7-0.2,0.3,0.3c2.3,1.1,4.6,2.3,6.7,3.7c2,1.2,3.8,2.5,5.7,3.8c3.3,2.3-1.5-1.4,0.4,0.3c1.9,1.8,1.2,2.3-0.5-1.1
				c-1-3.6-2-7.2-2.9-10.9c0.6,4.6-0.2,8.9,1.5,13.5c2.1,5.7,5.5,10.5,9.9,14.7c1.1,1,2.2,2.1,3.4,3.1c0.7,0.6,1.2,2,0.1,0
				c-0.5-1-1-2-1.5-3c0.9,1.6,1.2,3.8,1.6,5.6c0.2,1,0.4,2.1,0.6,3.2c0.7,2.9-0.2-3.9-0.1-0.9c0.2,3.8,0.4,7.5,0.1,11.3
				c0,0.4-0.4,2.2-0.2,2.4c-0.8-1.1,0.7-3.9,0-0.9c-0.5,2.1-0.9,4.2-1.5,6.3c-0.2,0.8-2.1,6.3-1.1,3.5c1-2.7-1.3,2.6-1.7,3.3
				c-0.8,1.4-1.6,2.8-2.5,4.2c-0.3,0.4-1.3,2.3-1.8,2.7c1-0.6,2.4-2.9,0.5-0.7c-2.4,2.7-4.9,5.2-7.6,7.5c-2.4,2.1,0-0.8,0.7-0.5
				c-0.2-0.1-1.7,1.2-1.9,1.3c-1.7,1.1-3.4,2.2-5.2,3.2c-1.3,0.7-3.8,1.3-4.8,2.4c0.5-0.4,4.5-1.6,0.9-0.5c-0.7,0.2-1.4,0.5-2.2,0.7
				c-1.7,0.5-3.4,1-5.2,1.4c-0.7,0.2-1.5,0.3-2.2,0.5c-4,0.8-0.8-0.7,0.4,0c-1-0.5-4.9,0.3-5.9,0.3c-2.2,0-4.4-0.1-6.7-0.3
				c-1.5-0.1-5.6-0.8-1.9-0.1c-2.5-0.4-5-0.8-7.5-1.3c-2.1-0.4-4.2-0.8-6.3-1.3c-1-0.2-1.9-0.5-2.9-0.7c-2.2-0.4,1.6,0.6,1.8,0.7
				c0.7,0.4,3.4,3.3,1.3,0.7c-0.5-0.6-1-1.1-1.5-1.7c-1.6-1.8-3.3-3.6-4.9-5.4c-3.1-3.4-6.1-6.9-9.1-10.3c-1.7-1.9,0.6,0.9,0.7,1
				c-0.9-0.7-1.8-2.5-2.4-3.5c-1.2-1.9-2.2-3.9-3.3-5.9c-1.2-2.3,0.6,1.3,0.6,1.2c-0.4-0.2-1.1-3.6-1.2-4.2
				c-0.1-0.3-0.7-2.3-0.5-2.6c0.3,2.6,0.4,3,0.2,1.4c-0.1-0.6-0.1-1.2-0.1-1.7c-0.4-5-0.2-10,0-14.9c-7.2,7.2-14.3,14.3-21.5,21.5
				c16-0.4,27.8-13.9,27.8-29.7c0-0.7-0.9-6.5-0.5-6.7c-0.2,1.7-0.7,3.2-1.5,4.7c-1.8,2.3-2,2.5-0.4,0.8c3.6-4.1,6.6-8.5,9.3-13.2
				c0.4-0.7,0.8-1.4,1.3-2.1c1.4-2,1.2-1.9-0.5,0.5c0-0.2,5.9-6.8,1.4-1.9c1.3-1.5,3.7-2.3,5.3-3.3c2.1-1,1.9-1-0.8,0.2
				c1-0.4,2-0.7,3-1.1c2.2-0.7,4.4-1.1,6.7-1.7c2.5-0.4,2.5-0.4-0.1,0c1.2-0.1,2.5-0.2,3.7-0.3c5-0.3,10.1-0.2,15.1,0
				c11.3,0.4,22-10.2,21.5-21.5C146.4,125.7,137.5,116.7,125.4,116.2L125.4,116.2z"/>
		</g>
	</g>
	<g>
		<g>
			<path class="st0" d="M216.8,234.5c-6.8-1.1-12.8-1.2-19.6,0.5c-3.9,1-7.6,2.4-11.5,3.2c-5.3,1.1-9.8,2.6-14.8,4.9
				c-1.4,0.6-2.9,1.6-4.3,2c2.7-1.1,3-1.3,0.8-0.5c3.2-0.2,3.6-0.3,1.2-0.3c0,14.3,0,28.7,0,43c17.5-0.4,35.1-1.3,52.6-2.5
				c11.2-0.8,22-9.3,21.5-21.5c-0.5-11-9.5-22.4-21.5-21.5c-17.5,1.2-35,2.1-52.6,2.5c-11.2,0.3-22,9.7-21.5,21.5
				c0.5,11.7,9.4,21.4,21.5,21.5c5.7,0,10.6-1.2,15.8-3.4c1.7-0.7,5-2.9,6.9-3.1c-0.7,0.3-1.5,0.6-2.2,0.9c1-0.4,2.1-0.8,3.1-1
				c3.3-0.9,6.8-1.3,10.1-2.2c1.6-0.5,3.2-1.1,4.9-1.6c1.1-0.3,2.2-0.6,3.3-0.9c-1.6,0.5-3.3,0.5-4.9-0.1c11.1,1.8,23.7-2.9,26.4-15
				C234.2,250.6,228.7,236.4,216.8,234.5L216.8,234.5z"/>
		</g>
	</g>
	<g>
		<g>
			<path class="st0" d="M243.7,232.1c-3.2,1.7-6.1,4.3-9.4,5.8c-0.6,0.3-1.4,0.4-1.9,0.7c-1.9,1-1.4-2.9,0.3,1.6
				c-3.7,3.7-7.4,7.4-11.1,11.1c0.2-0.1,0.5,0,0.6,0.2c8.7,7.6,21.4-5,12.7-12.7c-2.6-2.3-5.2-3.9-8.6-4.8
				c-6.1-1.7-13.6,4.4-11.1,11.1c2.8,7.4,9.1,11.7,17,11.6c8,0,13.8-5.4,20.4-9C263,242.1,253.9,226.6,243.7,232.1L243.7,232.1z"/>
		</g>
	</g>
	<g>
		<g>
			<path class="st0" d="M251.7,272.2c-4-2.7-8.4-4.7-13-6.1c0,5.8,0,11.6,0,17.4c2.1-0.7-0.5-0.3,1.7-0.4c9.1-0.3,12-11.9,4.5-16.8
				c-8.2-5.3-18.5-2.2-23.8,5.5c-2.6,3.8-0.9,10.3,3.2,12.3c6.2,3.1,14,1.7,17.7-4.6c4.2-6.9,0.2-13.9-4.4-19.3
				c-3.2-3.7-9.5-3.3-12.7,0c-3.7,3.7-3.2,9,0,12.7c0.3,0.4,0.6,1.1,1,1.3c1.4,0.6-0.1-9.4,7.5-5.7c1.1,4.1,2.2,8.2,3.2,12.3
				c-0.1,0.1-0.8,0.7-0.8,0.8c-0.2,0.1-0.4,0.1-0.6,0.2c1-0.2,1.1-0.3,0.5-0.2c-0.5,0-0.4,0,0.1,0c0.6,0,0.6,0,0.1,0
				c0,0.3-2.3-1.2-0.2,0.2c1.5-5.6,3-11.2,4.5-16.8c-2.2,0.1-4.4,0.4-6.5,1c-8.4,2.8-8.7,14.7,0,17.4c3.2,1,6,2.4,8.7,4.3
				c4,2.7,10,0.8,12.3-3.2C257.5,280.1,255.7,275,251.7,272.2L251.7,272.2z"/>
		</g>
	</g>
</g>
<g id="tape">
	<g>
		<path d="M119.8,272.8c-2.4,0-4.3-1.9-4.3-4.3c0-2.4,1.9-4.3,4.3-4.3c35.6,0,64.6-29,64.6-64.6c0-2.4,1.9-4.3,4.3-4.3
			c2.4,0,4.3,1.9,4.3,4.3C193.1,239.9,160.2,272.8,119.8,272.8z"/>
	</g>
	<g>
		<path d="M50.9,203.8c-2.4,0-4.3-1.9-4.3-4.3c0-40.4,32.9-73.3,73.3-73.3c2.4,0,4.3,1.9,4.3,4.3s-1.9,4.3-4.3,4.3
			c-35.6,0-64.6,29-64.6,64.6C55.2,201.9,53.3,203.8,50.9,203.8z"/>
	</g>
	<g>
		<path d="M119.8,246.9c-26.1,0-47.4-21.3-47.4-47.4c0-26.1,21.3-47.4,47.4-47.4s47.4,21.3,47.4,47.4
			C167.2,225.6,146,246.9,119.8,246.9z M119.8,160.7c-21.4,0-38.8,17.4-38.8,38.8s17.4,38.8,38.8,38.8s38.8-17.4,38.8-38.8
			S141.2,160.7,119.8,160.7z"/>
	</g>
	<path d="M246.6,259.8l22.8-22.8c1.2-1.2,1.6-3.1,0.9-4.7c-0.7-1.6-2.2-2.7-4-2.7h-61.3c3.4-9.5,5.3-19.6,5.3-30.2
		c0-49.9-40.6-90.5-90.5-90.5s-90.5,40.6-90.5,90.5S69.9,290,119.8,290h146.5c1.7,0,3.3-1.1,4-2.7c0.7-1.6,0.3-3.5-0.9-4.7
		L246.6,259.8z M38,199.5c0-45.1,36.7-81.9,81.9-81.9s81.9,36.7,81.9,81.9s-36.7,81.9-81.9,81.9S38,244.6,38,199.5z M158.1,281.4
		c19-8.9,34.3-24.2,43.4-43.1c0.1,0,0.1,0,0.2,0H256l-18.5,18.5c-1.7,1.7-1.7,4.4,0,6.1l18.5,18.5H158.1z"/>
</g>
</svg>
