<?xml version="1.0" encoding="utf-8"?>
<!-- Generator: Adobe Illustrator 23.0.1, SVG Export Plug-In . SVG Version: 6.00 Build 0)  -->
<svg version="1.1" id="icon4" xmlns="http://www.w3.org/2000/svg" xmlns:xlink="http://www.w3.org/1999/xlink" x="0px" y="0px"
	 viewBox="0 0 300 400" style="enable-background:new 0 0 300 400;" xml:space="preserve">
<style type="text/css">
	.st0{fill:#FF6D00;}
</style>
<g id="colour">
	<g>
		<g>
			<path class="st0" d="M158.2,217.4c-10.8,6.1-20.2,14.2-29.5,22.3c-5.8,5.1,1.6,13.3,7.9,10.2c7-3.5,14.2-6.6,21.6-9.3
				c-1.7-4-3.3-7.9-5-11.9c-7.6,5.3-15.3,10.4-23.2,15.2c3,3,5.9,5.9,8.9,8.9c1.3-2.2,2.9-4.1,5-5.5c5.7-4,2.5-14.2-5-11.9
				c-6.2,1.9-12.2,4-18.2,6.5c2.1,3.6,4.2,7.2,6.3,10.9c3-3.1,6.2-5.3,10.2-6.9c-2.2-3.7-4.4-7.5-6.6-11.2c-3,1.4-6,2.6-9.2,3.6
				c-2.3,0.7-6.2,2.3-8.5,1.3c-5.5-2.4-10.3,1.5-9.5,7.3c0.9,6.2,3.8,11.7,8.2,16.2c4,4.1,11,1,11.1-4.6c0-0.3,0-0.7,0-1
				c-0.6,1.5-1.3,3.1-1.9,4.6c-2.4,0.8-2.6,1.2-0.5,1.4c1,0.3,1.9,0.6,2.8,1.1c4.2,1.7,7.9-2.6,8.2-6.3c0.3-3.8,0.9-7.7,2.3-11.3
				c1-2.7,3.3-7.8,6.1-9.1c1.2-0.5,3.8,0.2,5.5-0.2c1.9-0.4,3.7-1.2,5.5-2.1c4.2-2,7.9-4.8,11.1-8c3.4-3.3,1.9-9.7-2.9-10.9
				c-2-0.5-3.6-0.5-5.6,0.1c2.7,2.7,5.3,5.3,8,8c1.7-5,7.3-9.5,11-13.2c4.2-4.1,8.6-7.9,13.2-11.5c-3.4-2.6-6.8-5.3-10.2-7.9
				c-3.7,7-9.5,14.7-16.8,18.3c-7,3.4-11.2,10.4-18.2,13.6c-2.9,1.3-3.8,5.4-2.7,8.1c1.4,3.2,4.4,4.3,7.7,3.8
				c4.9-0.7,9.5-2.6,13.7-5.4c-3-3-5.9-5.9-8.9-8.9c-2.6,4.8-8.1,8.5-12.1,12c-4.1,3.6-8.1,7.3-11.6,11.5c-3.7,4.6-6.3,9.6-8.4,15
				c-1,2.6-2,5.2-2.9,7.9c-0.6,1.8-1.3,3.6-1.9,5.5c-0.4,1.1-2.6,4.4-0.3,3.1c2.2,0,4.4,0,6.6,0c1.4,0.7,0.7,1.8,1-1
				c0.1-1.5,0.4-2.9,0.4-4.4c0-3.3-0.7-6.6-2-9.7c-4,1.7-7.9,3.3-11.9,5c3.8,5.5,7.7,11.1,10.4,17.3c2.4,5.6,4.1,11.4,7.7,16.4
				c3.4-2.6,6.8-5.3,10.2-7.9c-3.8-3.1-7.3-6.6-10.3-10.5c-4.9-6.5-15.2-1-11.2,6.6c3.9,7.5,8.3,14.6,13,21.6
				c4.7,6.9,16,0.4,11.2-6.6c-4.8-6.9-9.1-14.1-13-21.6c-3.7,2.2-7.5,4.4-11.2,6.6c3.7,4.9,7.6,9.3,12.4,13.2
				c5.2,4.3,14.9-1.4,10.2-7.9c-3.6-5-5.2-10.8-7.7-16.4c-2.8-6.2-6.6-11.7-10.4-17.3c-3.9-5.6-14.9-2.3-11.9,5
				c3,7.2-2.2,18,6.1,22.7c10.6,6,13.8-12.1,16-18.5c3.1-8.8,7.2-15.7,14-22.1c6.3-5.9,14.6-11.2,18.8-18.9c3-5.4-3.3-12.7-8.9-8.9
				c-3.4,2.3-6.5,3.5-10.5,4.1c1.7,4,3.3,7.9,5,11.9c3.9-1.8,7.1-4.6,10.1-7.5c3.4-3.3,6.7-5,10.7-7.3c7.7-4.5,14.7-13.9,18.8-21.6
				c3.7-6.9-4.6-12.3-10.2-7.9c-5.5,4.3-10.8,9-15.7,14c-4.7,4.9-9.6,9.9-11.8,16.4c-1.6,4.7,3.5,9.3,8,8c-0.4,0-0.9,0-1.3-0.1
				c-1-3.6-1.9-7.2-2.9-10.9c-1.9,1.9-4,3.5-6.3,4.8c-2.7,1.5-3.5,1.4-6.2,1.3c-4.7-0.1-9.2,3.3-12.2,6.7c-6.7,7.5-8.9,17.3-9.7,27
				c2.7-2.1,5.5-4.2,8.2-6.3c-6.6-2.7-16.8-3.4-16.9,6.5c3.7-1.5,7.4-3.1,11.1-4.6c-3-3-4.3-6.3-4.9-10.4c-3.2,2.4-6.4,4.9-9.5,7.3
				c10.1,4.4,21.5-0.4,30.9-4.9c7.6-3.7,1-14.4-6.6-11.2c-4.9,2.1-9.1,5.1-12.8,9c-4.1,4.3,0,13.5,6.3,10.9c6-2.4,12-4.6,18.2-6.5
				c-1.7-4-3.3-7.9-5-11.9c-4,2.8-7.2,6-9.7,10.2c-3.3,5.5,3.3,12.3,8.9,8.9c7.9-4.8,15.6-9.9,23.2-15.2c5.6-3.9,2.4-14.6-5-11.9
				c-8.4,3.1-16.6,6.6-24.7,10.6c2.6,3.4,5.3,6.8,7.9,10.2c8.5-7.4,17-14.7,26.9-20.3C172,224.5,165.5,213.3,158.2,217.4
				L158.2,217.4z"/>
		</g>
	</g>
	<g>
		<g>
			<path class="st0" d="M123.1,312.1c3.2,6.8,6,14.3,11.2,19.8c5.6,5.9,13.5,8.3,21.4,6.5c-4-5.1-7.9-10.3-11.9-15.4
				c0.7-0.6,1.5-1.1,2.2-1.7c4,5.1,7.9,10.3,11.9,15.4c6.5-9.4,11.3-19.5,15.6-30c4.3-10.6,8.9-21.3,11.5-32.4
				c2.7-11.3,3.2-23,4-34.6c0.8-12.6,1.7-25.2,2.5-37.8c-6.9,0.9-13.7,1.9-20.6,2.8c-0.3-1.8-1.2,1.6-1.5,2.2
				c-0.7,1.5-1.6,2.9-2.5,4.2c-1.9,2.7-4.1,5-6.4,7.3c-5.2,5.2-10.8,9.9-15.6,15.5c-2,2.4-3.5,5.2-6,6.9c-3.1,2-6.1,3.5-9,5.9
				c-5.7,4.7-12.2,10.6-13.3,18.3c-0.6,4.6,0.4,9.4,4.8,11.9c9.7,5.3,19.3-1.7,27-7.4c3.8-2.8,7.4-5.8,10.4-9.4
				c2.4-2.9,4.3-5.7,8-6.9c-2.7-6.4-5.4-12.8-8.1-19.2c-14.6,11.2-21.9,26.8-28.7,43.5c6.7,0,13.5,0,20.2,0
				c-1.2-6-1.6-11.9-1.4-17.9c0.3-9.1-11.6-13.8-17.9-7.4c-5.5,5.6-7.1,13.2-5.4,20.7c0.8,3.6,2.6,7,4.2,10.3c1.2,2.4,2.8,4.9,2,7.5
				c5.8-1.5,11.7-3.1,17.5-4.6c-0.6-0.8-1.3-1.6-1.9-2.4c-5.5-7-18.7-1.3-17.9,7.4c0.7,7.7,1.9,17.7,10,21.1
				c4.8,2,10.2,0.6,13.4-3.3c3-3.6,3.6-8,4-12.5c0.5-5.7-5.2-10.5-10.5-10.5c-6.3,0-9.8,4.8-10.5,10.5c-0.5,4.1-1,8.1-1.5,12.2
				c-1.3,10.6,14.9,14,19.6,5.3c5.3-9.9,10.8-20.2,12.8-31.3c0.9-5.1,0.6-10.6,2.2-15.6c1.7-5.5,4.4-9.8,4.6-15.9
				c0.5-13.5-20.5-13.5-21,0c-0.1,3.7-3.2,7.5-4.1,11.1c-1.3,4.8-1.1,9.9-1.9,14.8c-1.6,9.4-6.3,17.9-10.7,26.3
				c6.5,1.8,13,3.5,19.6,5.3c0.5-4.1,1-8.1,1.5-12.2c-7,0-14,0-21,0c0,0.3-0.1,0.6-0.3,0.8c3-1.7,6-3.5,9.1-5.2
				c-0.4,0-0.8,0-1.1,0.1c2.5,1,4.9,2.1,7.4,3.1c1.4,1.3,0.3,0.1,0-1.4c-0.2-0.9-0.4-1.8-0.4-2.7c-6,2.5-11.9,4.9-17.9,7.4
				c0.6,0.8,1.3,1.6,1.9,2.4c5.1,6.5,15.5,2.2,17.5-4.6c2.1-7.2,0.5-14-2.6-20.6c-1.1-2.3-2.5-4.5-3.2-6.9c-0.2-0.6-0.2-2-0.4-1.8
				c-6-2.5-11.9-4.9-17.9-7.4c-0.2,7.9,0.6,15.8,2.1,23.5c0.9,4.5,5.8,7.7,10.1,7.7c5,0,8.3-3.4,10.1-7.7
				c4.5-10.8,9.4-23.5,19.1-30.9c4.2-3.2,6.6-7.9,4.3-13.1c-2-4.7-7.3-7.6-12.4-6.1c-8.6,2.6-13.1,7.8-18.9,14.1
				c-2.4,2.6-5,4.7-7.9,6.6c-1.4,0.9-2.8,1.8-4.1,2.6c-0.4,0.2-3.5,1.5-2.5,1.6c1.8,0.5,3.5,1,5.3,1.4c-0.4-0.2-0.7-0.4-1.1-0.6
				c1.6,4,3.2,7.9,4.8,11.9c0.4-3,3.2-4.8,5.3-6.8c2.7-2.4,5.3-3.7,8.4-5.5c3.8-2.2,5.9-5.5,8.5-8.9c2.3-3,5.1-5.7,7.9-8.3
				c11.5-11,26.9-24.3,24.1-42c-0.8-5.1-6.9-8.2-11.5-7.5c-5.4,0.8-8.7,5-9.1,10.3c-0.8,11.6-1.5,23.2-2.3,34.8
				c-0.7,10.7-0.9,21.5-3.4,32c-2.5,10.3-6.6,20.2-10.5,29.9c-3.9,9.7-8.6,18.9-14.5,27.5c-5,7.2,3.4,18.8,11.9,15.4
				c4.7-1.8,7.4-3.9,10.3-7.9c5.9-7.9-3.8-17.2-11.9-15.4c-2.1,0.5-8.2-15.2-8.9-16.6c-2.4-5.1-9.8-6.4-14.4-3.8
				C121.6,300.8,120.7,307,123.1,312.1L123.1,312.1z"/>
		</g>
	</g>
	<g>
		<g>
			<path class="st0" d="M187.4,197c-1.3-0.3-1.2,3.2-1.3,4.5c-0.1,1.8-0.1,3.7,0,5.5c0.2,4.4,0.3,8.6-0.3,13
				c-1.1,7.3-1.7,14.5-2.1,21.9c-0.2,4-0.5,8-0.2,12c0.3,4-0.9,6.7-1.9,10.5c-0.5,1.9-0.3,3.9-0.8,5.7c-0.5,1.9-1.7,3.1-2.8,4.7
				c-2.1,3.2-3.5,6.8-4.5,10.5c-1.3,4.9,4.7,8.3,8.4,4.9c3-2.8,4.9-6,6.1-9.9c1.8-5.4-6.4-8.7-9.1-3.9c-2.2,3.9-4.4,7.9-6.1,12.1
				c-1.4,3.6-2.1,7.7-5,10.4c2.6,2,5.2,4,7.9,6.1c3.9-5.2,9.4-10.1,8.1-17.1c-0.6-3.4-4.7-4.3-7.3-3c-6.2,3.1-9,9.1-11.5,15.3
				c3-0.4,6.1-0.8,9.1-1.2c-0.3-0.5-0.5-1-0.8-1.4c-1.8-6.2-11.4-3.6-9.6,2.7c0.5,1.6,0.8,2.5,1.8,3.8c2.7,3.7,7.5,2.9,9.1-1.2
				c1.5-3.8,3.2-7.4,6.9-9.3c-2.4-1-4.9-2-7.3-3c0.3,1.4-6.2,8.3-7.1,9.4c-3.5,4.7,3.9,9.8,7.9,6.1c3.1-2.9,4.6-6.6,6-10.6
				c1.7-5,4-9.5,6.6-14c-3-1.3-6.1-2.6-9.1-3.9c-0.7,2.3-1.8,3.9-3.6,5.5c2.8,1.6,5.6,3.2,8.4,4.9c1.2-4.7,3.7-7.7,6.1-11.8
				c2.1-3.7,1.7-8.3,3-12.3c1.5-4.5,1.1-8.1,1-12.8c-0.1-5.1,0.5-10.2,0.8-15.3c0.6-9.4,2.6-18.5,2.2-28c-0.3-7,3.4-18.2-6.1-20.6
				C183.8,185.8,181.2,195.4,187.4,197L187.4,197z"/>
		</g>
	</g>
</g>
<path id="dropper" d="M207.1,108.2c-0.7-0.2-1.6-0.4-1.9-0.5c0-0.3-1.6-3.5-1.6-14.8c0-33.9-35-42.9-53.6-42.9s-53.6,9-53.6,42.9
	c0,12.3-1.9,15-2,15.1c0-0.1,0-0.1-0.1-0.1c-0.2,0-1,0.2-1.4,0.3C80.1,111.1,75,119.1,75,135.7c0,10.4,7.5,21.4,21.4,21.4v85.7
	c0,40.4,16.8,64.1,26.8,78.3c2.1,2.9,4.7,6.5,5.4,8.2C129,342.7,139.8,350,150,350c10.2,0,21-7.3,21.4-20.7c0.6-1.6,3.2-5.2,5.4-8.2
	c10-14.2,26.8-37.9,26.8-78.3v-85.7c13.9,0,21.4-11,21.4-21.4C225,119.1,219.9,111.1,207.1,108.2z M192.9,242.9
	c0,53.6-32.1,75-32.1,85.7S150,339.3,150,339.3s-10.7,0-10.7-10.7s-32.1-32.1-32.1-85.7v-0.4c20.5-2,33.9-15.1,46.6-28
	c11.8-11.7,22.9-22.7,39.1-24.7V242.9z M192.9,179c-20.5,2-33.9,15.1-46.6,28c-11.8,11.7-22.9,22.7-39.1,24.7v-74.6h85.7V179z
	 M203.6,146.4H96.4c-10.7,0-10.7-10.7-10.7-10.7c0-32.1,21.4,0,21.4-42.9c0-32.1,42.9-32.1,42.9-32.1s42.9,0,42.9,32.1
	c0,42.9,21.4,10.7,21.4,42.9C214.3,135.7,214.3,146.4,203.6,146.4z"/>
<g>
	<g>
		<path d="M378.7,287c1.9,0,1.9-3,0-3C376.8,284,376.8,287,378.7,287L378.7,287z"/>
	</g>
</g>
</svg>
