<?xml version="1.0" encoding="utf-8"?>
<!-- Generator: Adobe Illustrator 23.0.1, SVG Export Plug-In . SVG Version: 6.00 Build 0)  -->
<svg id="icon" version="1.1" xmlns="http://www.w3.org/2000/svg" xmlns:xlink="http://www.w3.org/1999/xlink" x="0px" y="0px"
	 viewBox="0 0 300 400" style="enable-background:new 0 0 300 400;" xml:space="preserve">
<style type="text/css">
	.st0{fill:#3D3D3D;}
	.st1{fill:none;stroke:#231F20;stroke-width:12;stroke-linecap:round;stroke-miterlimit:10;}
	.st2{fill:none;}
</style>
<g id="easel">
	<path class="st0" d="M244.3,242.9c0-8.3-6-17.1-17.1-17.1h-10.6c1.2-2.3,2.1-5,2.1-8.6c0-17.1,0-42.9,0-42.9s0-42.9,0-60
		s-17.1-17.1-17.1-17.1h-34.3C167.1,86,158.3,80,150,80s-17.1,6-17.1,17.1H98.6c-17.1,0-17.1,17.1-17.1,17.1v102.9
		c0,0,0,4.3,2.1,8.6H72.9c-8.3,0-17.1,6-17.1,17.1c0,8.3,6,17.1,17.1,17.1h4.8l-12.5,37.4c-2.9,9.1,1.8,18.6,10.7,21.7l0.3,0.1
		l0.3,0.1c1.8,0.5,3.5,0.7,5,0.7c7.4,0,13.9-4.7,16.3-11.7l15.2-45.6l0.9-2.7H133v42.9c0,9.5,7.7,17.1,17.1,17.1s17.1-7.7,17.1-17.1
		V260h19.1l0.9,2.7l15.2,45.6c2.3,7,8.9,11.7,16.3,11.7c1.6,0,3.2-0.2,5-0.7l0.3-0.1l0.3-0.1c8.9-3.1,13.6-12.6,10.7-21.6L222.4,260
		h4.8C235.5,260,244.3,254,244.3,242.9z M150,88.6c0,0,8.6,0,8.6,8.6h-17.1C141.4,88.6,150,88.6,150,88.6z M90,217.1V114.4
		c0.1-4,1.7-8.7,8.6-8.7h102.8c4,0.1,8.6,1.7,8.6,8.6v60v42.9c0,6.9-4.7,8.5-8.6,8.6H98.6C91.7,225.7,90.1,221,90,217.1z
		 M89.6,305.6c-1.2,3.6-4.5,5.8-8.1,5.8c-0.9,0-1.8-0.2-2.7-0.4c-4.5-1.6-6.9-6.3-5.4-10.9L86.7,260h18.1L89.6,305.6z M158.6,302.9
		c0,4.7-3.9,8.6-8.6,8.6s-8.6-3.9-8.6-8.6V260h17.1v42.9H158.6z M72.9,251.4c-8.6,0-8.6-8.6-8.6-8.6c0-8.6,8.6-8.6,8.6-8.6h154.3
		c8.6,0,8.6,8.6,8.6,8.6c0,8.6-8.6,8.6-8.6,8.6H72.9z M226.7,300.1c1.5,4.5-0.9,9.3-5.4,10.9c-0.9,0.2-1.9,0.4-2.7,0.4
		c-3.6,0-6.9-2.2-8.1-5.8L195.3,260h18.1L226.7,300.1z"/>
	<path class="st0" d="M244.3,242.9c0-8.3-6-17.1-17.1-17.1h-10.6c1.2-2.3,2.1-5,2.1-8.6c0-17.1,0-42.9,0-42.9s0-42.9,0-60
		s-17.1-17.1-17.1-17.1h-34.3C167.1,86,158.3,80,150,80s-17.1,6-17.1,17.1H98.6c-17.1,0-17.1,17.1-17.1,17.1v102.9
		c0,0,0,4.3,2.1,8.6H72.9c-8.3,0-17.1,6-17.1,17.1c0,8.3,6,17.1,17.1,17.1h4.8l-12.5,37.4c-2.9,9.1,1.8,18.6,10.7,21.7l0.3,0.1
		l0.3,0.1c1.8,0.5,3.5,0.7,5,0.7c7.4,0,13.9-4.7,16.3-11.7l15.2-45.6l0.9-2.7H133v42.9c0,9.5,7.7,17.1,17.1,17.1s17.1-7.7,17.1-17.1
		V260h19.1l0.9,2.7l15.2,45.6c2.3,7,8.9,11.7,16.3,11.7c1.6,0,3.2-0.2,5-0.7l0.3-0.1l0.3-0.1c8.9-3.1,13.6-12.6,10.7-21.6L222.4,260
		h4.8C235.5,260,244.3,254,244.3,242.9z M150,88.6c0,0,8.6,0,8.6,8.6h-17.1C141.4,88.6,150,88.6,150,88.6z M90,217.1V114.4
		c0.1-4,1.7-8.7,8.6-8.7h102.8c4,0.1,8.6,1.7,8.6,8.6v60v42.9c0,6.9-4.7,8.5-8.6,8.6H98.6C91.7,225.7,90.1,221,90,217.1z
		 M89.6,305.6c-1.2,3.6-4.5,5.8-8.1,5.8c-0.9,0-1.8-0.2-2.7-0.4c-4.5-1.6-6.9-6.3-5.4-10.9L86.7,260h18.1L89.6,305.6z M158.6,302.9
		c0,4.7-3.9,8.6-8.6,8.6s-8.6-3.9-8.6-8.6V260h17.1v42.9H158.6z M72.9,251.4c-8.6,0-8.6-8.6-8.6-8.6c0-8.6,8.6-8.6,8.6-8.6h154.3
		c8.6,0,8.6,8.6,8.6,8.6c0,8.6-8.6,8.6-8.6,8.6H72.9z M226.7,300.1c1.5,4.5-0.9,9.3-5.4,10.9c-0.9,0.2-1.9,0.4-2.7,0.4
		c-3.6,0-6.9-2.2-8.1-5.8L195.3,260h18.1L226.7,300.1z"/>
	<path class="st0" d="M244.3,242.9c0-8.3-6-17.1-17.1-17.1h-10.6c1.2-2.3,2.1-5,2.1-8.6c0-17.1,0-42.9,0-42.9s0-42.9,0-60
		s-17.1-17.1-17.1-17.1h-34.3C167.1,86,158.3,80,150,80s-17.1,6-17.1,17.1H98.6c-17.1,0-17.1,17.1-17.1,17.1v102.9
		c0,0,0,4.3,2.1,8.6H72.9c-8.3,0-17.1,6-17.1,17.1c0,8.3,6,17.1,17.1,17.1h4.8l-12.5,37.4c-2.9,9.1,1.8,18.6,10.7,21.7l0.3,0.1
		l0.3,0.1c1.8,0.5,3.5,0.7,5,0.7c7.4,0,13.9-4.7,16.3-11.7l15.2-45.6l0.9-2.7H133v42.9c0,9.5,7.7,17.1,17.1,17.1s17.1-7.7,17.1-17.1
		V260h19.1l0.9,2.7l15.2,45.6c2.3,7,8.9,11.7,16.3,11.7c1.6,0,3.2-0.2,5-0.7l0.3-0.1l0.3-0.1c8.9-3.1,13.6-12.6,10.7-21.6L222.4,260
		h4.8C235.5,260,244.3,254,244.3,242.9z M150,88.6c0,0,8.6,0,8.6,8.6h-17.1C141.4,88.6,150,88.6,150,88.6z M90,217.1V114.4
		c0.1-4,1.7-8.7,8.6-8.7h102.8c4,0.1,8.6,1.7,8.6,8.6v60v42.9c0,6.9-4.7,8.5-8.6,8.6H98.6C91.7,225.7,90.1,221,90,217.1z
		 M89.6,305.6c-1.2,3.6-4.5,5.8-8.1,5.8c-0.9,0-1.8-0.2-2.7-0.4c-4.5-1.6-6.9-6.3-5.4-10.9L86.7,260h18.1L89.6,305.6z M158.6,302.9
		c0,4.7-3.9,8.6-8.6,8.6s-8.6-3.9-8.6-8.6V260h17.1v42.9H158.6z M72.9,251.4c-8.6,0-8.6-8.6-8.6-8.6c0-8.6,8.6-8.6,8.6-8.6h154.3
		c8.6,0,8.6,8.6,8.6,8.6c0,8.6-8.6,8.6-8.6,8.6H72.9z M226.7,300.1c1.5,4.5-0.9,9.3-5.4,10.9c-0.9,0.2-1.9,0.4-2.7,0.4
		c-3.6,0-6.9-2.2-8.1-5.8L195.3,260h18.1L226.7,300.1z"/>
	<path class="st0" d="M244.3,242.9c0-8.3-6-17.1-17.1-17.1h-10.6c1.2-2.3,2.1-5,2.1-8.6c0-17.1,0-42.9,0-42.9s0-42.9,0-60
		s-17.1-17.1-17.1-17.1h-34.3C167.1,86,158.3,80,150,80s-17.1,6-17.1,17.1H98.6c-17.1,0-17.1,17.1-17.1,17.1v102.9
		c0,0,0,4.3,2.1,8.6H72.9c-8.3,0-17.1,6-17.1,17.1c0,8.3,6,17.1,17.1,17.1h4.8l-12.5,37.4c-2.9,9.1,1.8,18.6,10.7,21.7l0.3,0.1
		l0.3,0.1c1.8,0.5,3.5,0.7,5,0.7c7.4,0,13.9-4.7,16.3-11.7l15.2-45.6l0.9-2.7H133v42.9c0,9.5,7.7,17.1,17.1,17.1s17.1-7.7,17.1-17.1
		V260h19.1l0.9,2.7l15.2,45.6c2.3,7,8.9,11.7,16.3,11.7c1.6,0,3.2-0.2,5-0.7l0.3-0.1l0.3-0.1c8.9-3.1,13.6-12.6,10.7-21.6L222.4,260
		h4.8C235.5,260,244.3,254,244.3,242.9z M150,88.6c0,0,8.6,0,8.6,8.6h-17.1C141.4,88.6,150,88.6,150,88.6z M90,217.1V114.4
		c0.1-4,1.7-8.7,8.6-8.7h102.8c4,0.1,8.6,1.7,8.6,8.6v60v42.9c0,6.9-4.7,8.5-8.6,8.6H98.6C91.7,225.7,90.1,221,90,217.1z
		 M89.6,305.6c-1.2,3.6-4.5,5.8-8.1,5.8c-0.9,0-1.8-0.2-2.7-0.4c-4.5-1.6-6.9-6.3-5.4-10.9L86.7,260h18.1L89.6,305.6z M158.6,302.9
		c0,4.7-3.9,8.6-8.6,8.6s-8.6-3.9-8.6-8.6V260h17.1v42.9H158.6z M72.9,251.4c-8.6,0-8.6-8.6-8.6-8.6c0-8.6,8.6-8.6,8.6-8.6h154.3
		c8.6,0,8.6,8.6,8.6,8.6c0,8.6-8.6,8.6-8.6,8.6H72.9z M226.7,300.1c1.5,4.5-0.9,9.3-5.4,10.9c-0.9,0.2-1.9,0.4-2.7,0.4
		c-3.6,0-6.9-2.2-8.1-5.8L195.3,260h18.1L226.7,300.1z"/>
</g>
<g id="art">
	<line class="st1" x1="98.6" y1="120.6" x2="202.7" y2="120.6"/>
	<line class="st1" x1="98.6" y1="134.7" x2="202.7" y2="134.7"/>
	<line class="st1" x1="98.6" y1="148.7" x2="202.7" y2="148.7"/>
	<line class="st1" x1="98.6" y1="162.7" x2="202.7" y2="162.7"/>
	<line class="st1" x1="98.6" y1="176.8" x2="202.7" y2="176.8"/>
	<line class="st1" x1="98.6" y1="190.8" x2="202.7" y2="190.8"/>
	<line class="st1" x1="98.6" y1="204.8" x2="202.7" y2="204.8"/>
	<rect class="st2" width="300" height="400"/>
</g>
</svg>
