<?xml version="1.0" encoding="utf-8"?>
<!-- Generator: Adobe Illustrator 23.0.1, SVG Export Plug-In . SVG Version: 6.00 Build 0)  -->
<svg version="1.1" id="icon6" xmlns="http://www.w3.org/2000/svg" xmlns:xlink="http://www.w3.org/1999/xlink" x="0px" y="0px"
	 viewBox="0 0 300 400" style="enable-background:new 0 0 300 400;" xml:space="preserve">
<style type="text/css">
	.st0{fill:#009EFF;}
</style>
<g id="color">
	<g>
		<g>
			<path class="st0" d="M57.9,208.6c1.2,3.7,2.3,7.4,3.2,11.1c2.9,11.6,14.8,18.7,26.3,17.2c11-1.5,21.7-11.6,20.8-23.6
				c-0.9-12.4-6.5-24.1-18-30.1c-8.7-4.5-18.7-4.2-26.7,1.9c-8.1,6.2-10.3,15.4-8.6,25.2c0.8,4.7-0.2-3.7,0.2,1.1
				c0.2,2.2,0.4,4.4,0.5,6.6c0.2,4.4,0.3,8.8,0.3,13.2c0,8.7-0.1,17.5-0.1,26.2c0,8.8-0.1,17.6-0.1,26.3c0,9.5-1.6,20.6,0.9,29.8
				c6.5,24,35.9,26,56.5,27.3c17.2,1.1,34.4,1,51.6,1.4c20.4,0.5,40.8,0.3,60.8-4.6c-9.8-9.8-19.7-19.7-29.5-29.5
				c0.9-2,2-3.8,3.2-5.6c-9.2,7.6-8.5,22.9-1.9,31.5c7.5,9.7,20.2,11.7,31,6.2c-5.2,2.7-3.3,1.4-1.2,1c2.7-0.6,5.3-1.7,7.7-2.9
				c4.8-2.3,8.7-6.1,11.6-10.6c4-6.2,5.8-14,5.4-21.3c-0.6-11.8-2.2-23.2-1.9-35.1c0.5-25.1,4.1-50.2,3-75.3
				c-0.6-15.6-14.8-27.3-30.4-23.1c-13.8,3.7-27.6,7.8-41.5,10.9c-1.6,0.4-3.2,0.6-4.8,1c-4.8,1,5.2-0.3-0.1,0.1
				c-2.9,0.2-5.8,0.4-8.8,0.3c-5.2-0.3,0.7-0.4,1,0.3c-0.1-0.3-3.8-0.9-4.5-1.1c-1.9-0.7-1.9-0.7,0,0.1c1.9,0.8,1.9,0.8,0-0.1
				c-1.3-0.8-2.7-1.6-4-2.5c-6-4.3-11.7-8.2-19.1-9.9c-3.2-0.7-6.8-1-10.1-1c-1.8,0-6.5-0.6-1.1,0.7c-5-1.2,4.7,2.5,0.2,0.1
				c-2.8-1.4-5.7-2.7-8.7-3.6c-9.2-2.8-18.7-2.4-28-0.5c-3.5,0.7-6.8,1.8-10.1,3c-1.4,0.5-2.9,1-4.2,1.7c-0.4,0.1-0.7,0.2-1.1,0.3
				c9.7-2.5,17.5,2.3,23.4,14.3c-1.6-9.9-13.5-18.1-23.1-17.6c-11.5,0.5-19,7.3-23.1,17.6c-7.1,17.6,1.6,38.8,15.9,49.9
				c14,10.8,31.1,13.6,48.4,13.2c7.1-0.1,14.2-0.5,21.3,0.1c0.7,0.1,6.9,0.8,3.2,0.3c-3.7-0.5,1.5,0.3,2.2,0.4
				c3.6,0.6,7.2,1.4,10.8,2.3c14.4,3.6,28.2,9,42,14.3c4.3-15.4,8.5-30.9,12.8-46.3c-25.5-3.9-51.2-6.5-74.7,6.6
				c-8.9,5-14.2,17.2-11,27.1c3.4,10.6,12.2,16.8,23.1,17.6c9,0.6,18,1.3,27,1.9c11.9,0.8,22.1-9.8,23.6-20.8
				c1.6-12.1-5.7-22.6-17.2-26.3c-9.8-3.2-19.6-6.1-29.6-8.5c-10.6-2.6-22.5-6.1-33.5-6.1c-15.6,0-27.1,11.8-31.6,25.9
				c-4.3,13.3-4.3,29.4,5.9,40.1c8.1,8.5,20.5,12.6,31.6,15.6c13.2,3.6,25.1,3.3,37.3-3.3c0.6-0.4,5.3-2.4,5.4-2.9
				c-3.4,1.4-4,1.6-1.5,0.8c1-0.3,1.9-0.6,2.9-0.9c1-0.3,1.9-0.5,2.9-0.7c2.6-0.4,2-0.4-1.9,0.2c0.8,0.5,4.9-0.2,6-0.1
				c1,0,2,0.1,3,0.2c-3.9-0.6-4.5-0.6-1.9-0.2c1.9,0.5,3.9,1.1,5.8,1.6c2.4,0.9,1.9,0.7-1.5-0.7c0.9,0.4,1.8,0.9,2.7,1.4
				c1.4,0.8,7,4.8,1.4,0.4c1.6-12.6,3.2-25.1,4.9-37.7c-0.8,0.6-1.7,1.2-2.6,1.7c-1.8,0.9-1.8,1,0.1,0.2c2-0.8,2-0.8,0-0.1
				c-0.7,0.2-1.5,0.5-2.2,0.6c-0.7,0.2-1.5,0.4-2.2,0.5c-2.6,0.4-2,0.4,1.8-0.2c-0.1-0.2-4.4,0.2-4.7,0.2c-1.6,0-3.2-0.1-4.8-0.2
				c-0.8-0.1-1.6-0.1-2.4-0.2c-1.9-0.2-1.1-0.1,2.4,0.4c-0.5,0.6-8.6-1.5-9.5-1.7c-16.5-3.3-34.4-6.6-50.7-0.6
				c-4.9,1.8-9.1,3.8-13.4,6.7c-0.5,0.3-4,2.5-4,2.5c-0.6-1.5,10.4-1.2,4.9-2c-12.5-1.7-25.3,5.5-30.7,16.8
				c-4.2,8.7-5.4,17.4-6.2,26.9c-0.1,1.5-0.3,2.9-0.4,4.4c-0.4,5,1.2-5.1,0.1-0.7c-0.3,1.3-0.7,2.7-1,4.1c-0.9,2.4-0.6,1.7,0.8-2
				c-1.3,2.1-0.8,1.6,1.4-1.4c13.4,7.8,26.7,15.6,40.1,23.4c3.9-11.2-2-23.8-11.7-29.8c-4.3-2.6-9.1-4-14.2-4.1
				c-2.6,0.1-5.2,0.4-7.7,0.9c2.6-0.7,5.1-0.8,7.7-0.3c3.5,2.1,7.1,4.1,10.6,6.2c-3-2.4,4,7.3,4,7.2c0.2,0.7,0.1,6,0.5,2.9
				c0.3-2.4,0.5-4.8,0.8-7.2c0.6-5.5,1.2-11,1.7-16.6c1-11.1,1.7-22.2,2-33.3c0.7-22.2,0.2-44.4-1.5-66.6c-0.7-9.8-5.4-18-14.8-21.9
				c-8.1-3.4-20.3-2.4-26.2,5c-0.9,1.1-1.8,2.2-2.7,3.4c-5.5,6.9-8.6,14.4-6.2,23.4c2.1,7.6,8.7,15.2,16.8,16.8
				c0.9,0.2,1.8,0.4,2.7,0.6c4.1,0.9-3.2-1.9-1.4-0.6c1.4,1,3.5,2.7,5.1,3.3c-0.8-0.3-4.1-3.3-1.6-1.1c0.7,0.6,1.4,1.2,2.2,1.8
				c2.2,1.9,4.5,3.7,6.8,5.5c10.8,8.3,22.6,12.7,36.4,12.6c24.1-0.1,48.3-6.4,71.5-12.2c12.2-3,20.7-17.4,16.8-29.5
				c-4.1-12.6-16.5-20-29.5-16.8c-10.4,2.6-20.7,5.2-31.2,7.2c-2.9,0.6-5.7,1.1-8.6,1.6c-1,0.2-2.8,0.8-3.8,0.6
				c1.6,0.3,3.7-0.4,0.6-0.1c-5.2,0.6-10.5,1.1-15.8,1.2c-1.1,0-2.3-0.2-3.4-0.1c-2.9,0.2,4.2,1.1,1.4,0.3c-1-0.3-2.2-0.7-3.2-0.8
				c-2.9-0.5,3.8,2.2,1.8,0.7c-1.5-1.1-3.2-1.9-4.7-3c-2.4-1.6,4.2,3.4,1,0.7c-0.7-0.6-1.4-1.2-2.2-1.8c-8.3-7-17.1-14.2-28.1-16.3
				c3.5,13.4,7.1,26.7,10.6,40.1c0.9-1.1,1.8-2.2,2.7-3.4c-13.7-5.7-27.3-11.3-41-17c2,26.7,2.4,53.5,0.9,80.3
				c-0.7,13.1-1.9,26.1-3.5,39c-1,8.6,0.5,17.3,5.9,24.2c3.7,4.8,8.3,8.5,14.4,10.2c2.6,0.7,5.5,1.2,8.2,1.2c0.5,0,0.9-0.1,1.4-0.1
				c12.4-0.8,8.6-2.7-11.5-5.6c-2.1-3.5-4.1-7.1-6.2-10.6c0.1,0.3,0.2,0.6,0.3,0.9c0-4.3,0-8.5,0-12.8c-0.1,0.3-0.2,0.6-0.3,0.9
				c-3.4,9.6,2.2,22.4,11,27.1c8.7,4.6,22.3,4.7,29.1-3.8c5.8-7.2,10.1-14.8,11.5-23.9c0.7-4.8,1.2-9.5,1.7-14.3
				c0.1-1.4,0.6-3,0.4-4.4c-0.1,1.2-0.3,2.3-0.4,3.5c0.2-0.9,0.3-1.9,0.6-2.8c0.5-2.1,2.6-4.9-0.6,0.3c2.3-3.7,0.1-2.7-6.6,3
				c-8.1,3-10.1,4.5-5.9,4.5c4.5,0.7,9.3-0.1,13.6-1.4c4.8-1.4,8.4-3.8,12.4-6.4c0.3-0.2,3.8-2.7,4.1-2.4c-3.3,1.3-3.7,1.6-1.3,0.7
				c0.8-0.2,1.5-0.4,2.3-0.6c0.8-0.2,1.6-0.3,2.3-0.5c-3.5,0.4-4.3,0.6-2.4,0.4c1.6,0,3.2-0.2,4.9-0.1c1.7,0,3.3,0.1,4.9,0.3
				c6.4,0.6-3.9-0.8,1.1,0.1c6.4,1.2,12.8,2.6,19.3,3.5c17.6,2.6,36.4,3,51.7-7.7c6.4-4.4,10.4-9.7,11.5-17.5
				c0.9-6.8-0.8-15.6-6.6-20.2c-14.5-11.4-32-18.5-50.9-16.5c-10,1.1-18.9,3.5-27.8,8.3c-0.6,0.3-4.1,2.5-4.1,2.4
				c3.4-1.2,3.8-1.5,1.3-0.7c1.1-0.2,2.1-0.4,3.2-0.6c-2.7-0.2-2.1-0.1,1.6,0.2c-1.1-0.2-2.2-0.5-3.3-0.8c-1.7-0.4-3.4-0.9-5.1-1.4
				c-1.7-0.5-3.4-1.1-5-1.7c-1.1-0.4-2.2-0.8-3.3-1.3c2.7,1.2,3.3,1.4,1.8,0.7c-0.7-0.3-1.4-0.6-2-1c3.1,2.1,5.3,5.1,6.4,8.9
				c0.3,3.7,0.5,4.6,0.5,2.7c0.1-1.9-0.1-1-0.5,2.5c0.5-1.1,0.5-2.8,0.8-4c0.2-0.9,0.4-1.7,0.7-2.5c-1.7,3.7-2,4.4-0.9,2.2
				c-2.2,3.2-5.2,5.5-8.9,6.6c-1.7,0.7-3.4,0.8-5.1,0.4c-2.3-0.3-2.3-0.3,0.2,0.1c17,3.7,33.7,7.5,50.3,12.9
				c2.1-15.7,4.3-31.4,6.4-47.1c-9-0.6-18-1.3-27-1.9c4,14.9,8.1,29.8,12.1,44.7c0.9-0.5,1.9-1.1,2.9-1.5c2.4-1.1,2-0.9-1.3,0.5
				c0.1-0.6,5.5-1.7,6.2-1.8c1-0.2,2.1-0.4,3.2-0.6c-3.7,0.4-4.2,0.5-1.6,0.2c2.2-0.1,4.4-0.3,6.6-0.3c4.4-0.1,8.9,0.2,13.3,0.7
				c1.6,0.2,9.1,0.3,1.9,0.1c2.2,0.1,4.4,0.6,6.6,1c6.6,1,12.5,1.1,18.5-2.4c5-2.9,9.7-8.6,11-14.3c3.1-13.8-4.2-24.6-16.8-29.5
				c-25-9.7-50.3-18.7-77.4-19.4c-6.2-0.1-12.4,0.3-18.6,0.3c-1.5,0-8.1,0.7-9.1-0.4c3.4,0.5,4.2,0.6,2.3,0.3
				c-0.5-0.1-1.1-0.2-1.6-0.3c-1.3-0.3-2.7-0.6-4-1c-0.8-0.2-1.6-0.5-2.3-0.8c-1.7-0.6-1-0.4,2,0.8c-0.2-0.5-2.3-1.3-2.8-1.6
				c-4.8-2.7,4.4,2.3,0-0.2c-0.3-0.4-0.7-0.7-1-1.1c2,2.8,2.6,3.4,1.6,1.9c-0.3-0.4-0.5-0.8-0.7-1.3c-0.8-1.6-0.5-0.8,0.9,2.4
				c0,0-1.1-6.1-0.6-1c0.5,4.7,0.5-0.7,0.3-1.1c1,1.7-1.4,5.7,0.6,0.9c-15.4,0-30.9,0-46.3,0c2.6,15.9,20.6,22.1,34.6,19.4
				c3.4-0.7,6.4-2.2,9.7-3.3c1.7-0.6,3.4-0.9,5.1-1.5c5.1-1.6-4.7-0.2,0.5-0.2c1.1-0.1,2.3-0.1,3.4,0c-1-0.2-2-0.3-3-0.5
				c1.1,0.2,2.2,0.5,3.3,0.8c-3-1.3-3.6-1.6-2.1-0.9c6.3,3.1,11.8,5.2,18.8,5.5c1.8,0.1,3.8,0.1,5.6-0.1c2.9,0.1,2.5-0.1-1.1-0.4
				c-3.1-1.5-3.8-1.8-2.2-1c2.9,1.8,5.6,3.8,8.4,5.7c15.7,11.1,35.1,11.1,53.3,7.9c15.6-2.8,31-7.8,46.4-11.8
				c-10.1-7.7-20.3-15.4-30.4-23.1c0.9,22.6-1.8,45.1-2.8,67.7c-0.5,11.1-0.5,22.2,0.6,33.2c0.3,2.5,0.7,5,0.9,7.5
				c0.1,1.4-0.2,6.8,0.5,2.5c0.4-2.3,0.4-2.6,0-0.8c0.5-1.2,1-2.4,1.5-3.6c0.5-0.8,7.7-9,9.3-7.8c-1.6-1.2-10,3.6-10.9,4
				c9.7,12.6,19.4,25.1,29.1,37.7c4.4-3.6,8-10,9.1-15.5c1.7-8.6,0.2-16.9-6.2-23.4c-6.2-6.2-15-8.2-23.4-6.2
				c-2.4,0.6-4.8,1.1-7.2,1.6c-1.2,0.2-2.4,0.4-3.6,0.6c3.3-0.4,3.6-0.5,0.9-0.1c-4.9,0.4-9.8,0.8-14.8,1c-10,0.3-20,0-30-0.3
				c-9.7-0.2-19.5-0.4-29.2-0.7c-4.9-0.1-9.8-0.2-14.7-0.5c-2.4-0.1-4.9-0.3-7.3-0.6c-1.2-0.1-2.4-0.2-3.6-0.4
				c3.4,0.5,3.7,0.5,1,0.1c-2.4-0.5-4.8-0.9-7.1-1.4c-2.4-0.6-8.5-3.7-2,0.1c6.1,16.2,9,20.7,8.7,13.6c0-1.3,0-2.6,0-3.9
				c0-2.6,0-5.2,0-7.8c0.1-9.8,0.1-19.5,0.2-29.3c0.1-21.9,1.2-43.9-2.6-65.6c-11.8,9-23.5,18.1-35.3,27.1c3.3,1.7-1.9-1.8-2.7-2.9
				c-2-2.6-2.7-5.1-3-8.5c15.7-2.1,31.4-4.3,47.1-6.4c-1-3.8-2-7.5-3.2-11.1c-3.9-11.9-16.8-20.9-29.5-16.8
				C62.8,182.9,53.7,195.8,57.9,208.6L57.9,208.6z"/>
		</g>
	</g>
	<g>
		<g>
			<path class="st0" d="M62.1,103.1c29.2-0.1,58.3-0.2,87.5-0.2c14.6,0,29.2-0.1,43.8-0.1c7,0,13.9,0,20.9-0.1c3.6,0,7.3,0,10.9,0
				c2,0,4,0.1,6,0c0.7,0,1.3,0,2,0c-6.3,0-11.4-3.1-15.2-9.1c-1.1-4-2.2-8.1-3.3-12.1c0,0.3,0.1,0.5,0.1,0.8c1.1-4,2.2-8.1,3.3-12.1
				c-0.1,0.3-0.3,0.6-0.4,0.8c6.9-4,13.8-7.9,20.7-11.9c-59.6-0.8-119.2-1.5-178.8-2.3c-12.6-0.2-24.6,11.2-24,24
				c0.6,13.1,10.5,23.8,24,24c59.6,0.8,119.2,1.5,178.8,2.3c7.7,0.1,17.4-4.5,20.7-11.9c3.9-8.8,5.6-18-0.2-26.6
				c-4-6.1-10-10.8-17.2-12.7c-8.8-2.2-18.6-1.2-27.5-1.2c-16.9,0-33.8,0.1-50.7,0.1c-33.8,0.1-67.6,0.2-101.4,0.3
				c-12.6,0-24.6,11-24,24C38.7,92.1,48.6,103.1,62.1,103.1L62.1,103.1z"/>
		</g>
	</g>
	<g>
		<g>
			<path class="st0" d="M45.8,89.8c-2.7,0.8-5,2.9-5.7,5.6c-0.6,2.2-0.4,4.8,1,6.7c1.3,1.9,3.2,3.4,5.5,3.9c2,0.4,4.1,0.2,6.1-0.4
				c1.7-0.6,3.3-1.6,4.2-3.2c0.9-1.5,1.3-3.7,0.7-5.4c-0.5-1.7-1.6-3.3-3.2-4.2c-1.6-0.9-3.6-1.3-5.4-0.7c-0.5,0.2-1,0.3-1.6,0.4
				c0.6-0.1,1.2-0.2,1.9-0.3c-0.3,0-0.5,0-0.8,0c0.6,0.1,1.2,0.2,1.9,0.3c-0.2,0-0.4-0.1-0.6-0.2c0.6,0.2,1.1,0.5,1.7,0.7
				c-0.1-0.1-0.3-0.1-0.4-0.2c0.5,0.4,0.9,0.7,1.4,1.1c-0.1-0.1-0.2-0.2-0.3-0.3c0.4,0.5,0.7,0.9,1.1,1.4c-0.1-0.1-0.2-0.2-0.2-0.4
				c0.2,0.6,0.5,1.1,0.7,1.7c-0.1-0.1-0.1-0.2-0.1-0.3c0.1,0.6,0.2,1.2,0.3,1.9c0-0.1,0-0.2,0-0.4c-0.1,0.6-0.2,1.2-0.3,1.9
				c0-0.1,0-0.2,0.1-0.4c-0.2,0.6-0.5,1.1-0.7,1.7c0-0.1,0.1-0.2,0.2-0.3c-0.4,0.5-0.7,0.9-1.1,1.4c0,0,0.1-0.1,0.1-0.1
				c-0.5,0.4-0.9,0.7-1.4,1.1c0.1-0.1,0.2-0.1,0.3-0.2c-0.6,0.2-1.1,0.5-1.7,0.7c0.1,0,0.1,0,0.2,0c1.7-0.5,3.3-1.7,4.2-3.2
				c0.9-1.5,1.3-3.7,0.7-5.4C53.3,91.1,49.6,88.7,45.8,89.8L45.8,89.8z"/>
		</g>
	</g>
	<g>
		<g>
			<path class="st0" d="M55.5,189.8c0.2,0,0.5,0,0.7,0c0.5,0.1,0.3,0-0.6-0.1c0.4,0.2,1,0.2,1.5,0.3c0.5,0.1,1,0.2,1.4,0.4
				c0.4,0.1,1.9,0.7,0.2,0c1.8,0.8,3.4,1.2,5.4,0.7c1.6-0.4,3.4-1.7,4.2-3.2c1.6-3,1.1-8-2.5-9.6c-3.4-1.5-6.6-2.3-10.3-2.5
				c-3.7-0.2-7.2,3.4-7,7C48.7,186.7,51.6,189.5,55.5,189.8L55.5,189.8z"/>
		</g>
	</g>
	<g>
		<g>
			<path class="st0" d="M127,181.7c9,0,9-14,0-14C118,167.7,117.9,181.7,127,181.7L127,181.7z"/>
		</g>
	</g>
	<g>
		<g>
			<path class="st0" d="M231.5,180.3c4.4,0.2,9.8-0.5,13.3-0.6c-1.2-0.3-2.4-0.6-3.5-1c0.1,0.1,0.3,0.2,0.4,0.3c-1.2-2-2.3-4-3.5-6
				c0,0.1,0,0.3,0,0.4c0.3-1.2,0.6-2.4,1-3.5c0.9-1.2-0.3,0.2-0.6,0.6c-0.7,0.9-1.2,1.8-1.5,3c-0.5,1.8-0.5,3.8,0.1,5.6
				c2.6,8.6,16.1,4.9,13.5-3.7c-1.8,3.6-2,4.8-0.7,3.5c0.5-0.6,1-1.2,1.4-1.8c0.7-1.2,1-2.6,0.9-4c-0.1-3.7-2.9-6.6-6.5-7.1
				c-2.2-0.3-4.6,0.3-6.8,0.4c-2.5,0.1-5,0.1-7.4,0c-3.8-0.2-7,3.3-7,7C224.5,177.3,227.7,180.2,231.5,180.3L231.5,180.3z"/>
		</g>
	</g>
	<g>
		<g>
			<path class="st0" d="M249,96.7c-0.1,0.7-0.2,1.4-0.3,2.1c-0.3,0.9-0.3,1.9-0.1,2.8c0,0.9,0.3,1.8,0.8,2.6
				c0.8,1.5,2.5,2.8,4.2,3.2c1.8,0.4,3.8,0.3,5.4-0.7c0.5-0.4,0.9-0.7,1.4-1.1c0.9-0.9,1.5-1.9,1.8-3.1c0.1-0.7,0.2-1.4,0.3-2.1
				c0.3-0.9,0.3-1.9,0.1-2.8c0-0.9-0.3-1.8-0.8-2.6c-0.8-1.5-2.5-2.8-4.2-3.2c-1.8-0.4-3.8-0.3-5.4,0.7c-0.5,0.4-0.9,0.7-1.4,1.1
				C250,94.5,249.4,95.5,249,96.7L249,96.7z"/>
		</g>
	</g>
</g>
<path id="paint" d="M246.4,50H53.6c-13.9,0-21.4,11-21.4,21.4v42.9h10.7v203.6C42.9,341.4,62,350,75,350h150
	c13,0,32.1-8.6,32.1-32.1V114.3h10.7V71.4C267.9,57.5,256.8,50,246.4,50z M246.4,317.9c0,21.4-21.4,21.4-21.4,21.4H75
	c0,0-21.4,0-21.4-21.4V178.5c13.5-0.5,21.1-3.1,28.5-5.6c7.8-2.6,15.2-5,30.4-5c14.5,0,21.3,4.5,29.1,9.9
	c8.1,5.4,17.5,11.6,35.1,11.6c16.4,0,25.4-5.2,34.2-10.3c8.7-5,17.7-10.1,35.5-10.9V317.9z M246.4,157.4c-20.7,0.9-31.4,7-40.8,12.3
	c-8.2,4.8-15.3,8.9-28.8,8.9c-14.5,0-21.3-4.5-29.1-9.9c-8.1-5.4-17.5-11.6-35.1-11.6c-16.9,0-25.5,2.9-33.9,5.7
	c-6.9,2.2-13.4,4.4-25.1,4.9v-53.5h192.9V157.4z M257.1,103.6H42.9V71.4c0,0,0-10.7,10.7-10.7h192.9c0,0,10.7,0,10.7,10.7V103.6z"/>
</svg>
