<?xml version="1.0" encoding="utf-8"?>
<!-- Generator: Adobe Illustrator 23.0.1, SVG Export Plug-In . SVG Version: 6.00 Build 0)  -->
<svg version="1.1" id="icon7" xmlns="http://www.w3.org/2000/svg" xmlns:xlink="http://www.w3.org/1999/xlink" x="0px" y="0px"
	 viewBox="0 0 300 400" style="enable-background:new 0 0 300 400;" xml:space="preserve">
<style type="text/css">
	.st0{fill:#020202;}
	.st1{fill:#F92323;}
	.st2{fill:#0056FF;}
</style>
<g id="color">
	<g>
		<g>
			<path class="st0" d="M94.5,160.6c-4.5,0.2-9.1-0.6-13.3-2.3c3.5-0.1,7,0.2,10.3,1c-4.5,0.1-9.4,0.2-13.1-2.4
				c-0.4,2-0.8,4-1.2,5.9c-0.4,1.9-0.8,3.9-0.5,5.9s1.3,3.9,3.2,4.7c0.9,0.4,1.8,0.5,2.8,0.5c6,0.3,12-0.3,17.7-1.8
				c-0.2,0.3-0.6,0.4-0.9,0.4c0-0.4,0.2-0.8,0.5-1.1c-0.3,1-1,1.9-1.8,2.5c-0.1-3.7,4.3-6.2,4.8-9.8c0.2-1.5-0.3-2.9-0.8-4.4
				c-0.3-0.8-0.6-1.8-1.4-2.2c-0.4-0.2-1-0.3-1.4-0.3c-5.3-0.4-10.5-0.8-15.8-1.2c-0.4,0-0.9,0-1.1,0.3c3.1,1,6.2,2.1,9.2,3.1
				c0.1,0.7-0.8,1.1-1.5,1.2c-3.5,0.8-7,1.5-10.4,2.3c3,2.3,7.2,2.3,11.1,2.2c-1.6,0.8-3.3,1.5-4.9,2.3c2.6-0.9,5.3-1.8,7.9-2.6
				c1-0.3,2.1-0.7,3.2-0.6c-5.2,2.1-10.8,3.2-16.5,3.2c4.1,1.4,8.7,1.5,12.9,0.4c0.5-0.1,1.1-0.3,1.6-0.2c0.5,0.1,1,0.7,0.8,1.2"/>
			<g>
				<path class="st0" d="M94.5,156.6c-4.3,0.1-8.2-0.6-12.2-2.1c-0.4,2.6-0.7,5.2-1.1,7.9c3.2-0.1,6.2,0.2,9.3,0.8
					c0.4-2.6,0.7-5.2,1.1-7.9c-3.9,0.1-7.7,0.2-11.1-1.9c-2.1-1.3-5.3-0.1-5.9,2.4c-1.3,6.5-4.4,15.4,2,20.2
					c6.1,4.6,18.1,1.6,24.8-0.1c-1-2.4-2.1-4.9-3.1-7.3c-0.3,0.1-0.6,0.3-0.9,0.4c1.8,1.8,3.6,3.6,5.5,5.5c0.2-0.4,0.3-0.7,0.5-1.1
					c2-4.6-4.5-8.7-6.9-4c-0.4,0.6-0.8,1.1-1.2,1.7c2.3,0.9,4.6,1.9,6.8,2.8c0.3-3.1,4-5.5,4.6-8.8c0.6-3.2-0.5-7.6-2.8-10
					c-2.8-2.8-8-2.2-11.6-2.5c-3.7-0.3-8.6-1.7-12,0.2c-3.2,1.7-2.1,6.3,1,7.3c3.1,1,6.2,2.1,9.2,3.1c-0.8-2-1.6-3.9-2.4-5.9
					c-0.1,0.3-0.3,0.5-0.4,0.8c0.8-0.6,1.6-1.2,2.4-1.8c-3.5,1.4-7.7,1.9-11.5,2.7c-3.5,0.8-3.7,5.5-1,7.3c4,2.6,8.4,2.9,13.1,2.7
					c-0.7-2.5-1.3-5-2-7.5c-1.6,0.8-3.3,1.5-4.9,2.3c-4.1,1.9-1.2,8.7,3.1,7.3c3.1-1,6.8-2.9,10.1-3.1c-0.4-2.6-0.7-5.2-1.1-7.9
					c-5,1.9-10,3-15.4,3.1c-4.5,0.1-5.4,6.5-1.1,7.9c2.4,0.7,4.9,1.2,7.5,1.3c0.9,0,6.5-1.2,6.7-1.1c-0.6-0.8-1.2-1.6-1.8-2.4
					c0,0.2,0.1,0.5,0.1,0.7c0.8,5.1,8.5,2.9,7.7-2.1c-0.4-2.9-2.8-4-5.4-4c-4.5,0-8,1.3-12.6-0.1c-0.4,2.6-0.7,5.2-1.1,7.9
					c6.1-0.1,11.9-1.2,17.5-3.4c3.9-1.5,3.8-8.1-1.1-7.9c-4.2,0.2-8.2,2-12.2,3.3c1,2.4,2.1,4.9,3.1,7.3c1.6-0.8,3.3-1.5,4.9-2.3
					c3.7-1.7,1.8-7.5-2-7.5c-3.2,0.1-6.2,0.2-9-1.7c-0.3,2.4-0.6,4.9-1,7.3c4.4-1,11.9-0.9,14.3-5.3c1.3-2.4,0.1-5-2.4-5.9
					c-3.1-1-6.2-2.1-9.2-3.1c0.3,2.4,0.6,4.9,1,7.3c-1.7,0.9,1,0.4,2,0.5c1.6,0.1,3.3,0.2,4.9,0.4c1.6,0.1,3.3,0.4,4.9,0.4
					c1.7-0.1,1.9-0.6,2.4,1.2c0.6,2.3-1.5,4-2.6,5.8c-1.2,2-1.8,3.6-2,5.9c-0.3,3.6,4.5,5.1,6.8,2.8c1.2-1.2,1.7-1.8,2.4-3.3
					c-2.3-1.3-4.6-2.7-6.9-4c-0.2,0.4-0.3,0.7-0.5,1.1c-1.6,3.8,1.7,7.2,5.5,5.5c0.3-0.1,0.6-0.3,0.9-0.4c4.3-1.9,1.2-8.4-3.1-7.3
					c-4.4,1.1-10.4,2.7-14.9,1.7c-2,0.4-3.2-0.5-3.8-2.8c0.1-1.1,0.2-2.2,0.5-3.3c0.4-2,0.8-4,1.2-5.9c-2,0.8-3.9,1.6-5.9,2.4
					c4.7,2.8,9.8,3.1,15.2,3c4.3-0.1,5.6-6.9,1.1-7.9c-3.8-0.8-7.5-1.2-11.4-1.1c-4.7,0.1-5.2,6.3-1.1,7.9c4.7,1.7,9.4,2.5,14.4,2.4
					C99.7,164.5,99.7,156.5,94.5,156.6L94.5,156.6z"/>
			</g>
		</g>
		<g>
			<path class="st0" d="M88.9,202.4c-3.2,0.2-6.4,0.4-9.7,0.6c-0.3,0-0.7,0-1,0.1c-1.1,0.4-1.7,1.7-2,2.8c-0.5,2-0.8,4-0.8,6
				c0,1.8,0.2,3.6,1,5.2s2.1,3,3.9,3.5c1.7,0.5,3.6-0.1,5.4-0.2c3.8-0.2,8.1,1.4,11.3-0.8c1.1-0.7,1.9-1.8,2.7-2.9
				c1.3-1.7,2.6-3.7,2.3-5.8c-1.1,2.9-1.8,5.9-2.2,8.9c0-4,0-8.1,0-12.1c0-1.2,0-2.4-0.4-3.5c-0.4-1.1-1.3-2.1-2.4-2.3
				c-0.9-0.2-1.8,0.1-2.7,0.3c-1.6,0.2-3.7-0.1-4.6,1.2c-0.4,0.6-0.5,1.3-0.5,1.9c-0.2,1.7-0.2,3.6,1,4.8c1.1,1.1,3,1.1,3.9,2.4
				c-3.3-0.1-6.7-0.7-9.9-1.7c2.7,0.1,5.5,0.2,8.2,0.4c0.6,0,1.5-0.1,1.6-0.7c-2.5-1.9-5.9-2.7-9-2c-1.2,0.2-2.5,0.8-2.9,2
				c-0.4,1.3,0.6,2.7,1.8,3.2c1.2,0.5,2.6,0.4,4,0.2c0.8-0.1,1.6-0.2,2.5-0.3c0.4,0,0.7-0.1,1-0.3c0.3-0.3,0.4-0.7,0.5-1.1
				c0.7-3.2,3-6.2,6.2-6.8"/>
			<g>
				<path class="st0" d="M88.9,198.4c-6.3,0.4-14.3-0.9-16.5,6.5c-1.7,5.8-1.6,13.9,3.6,17.9c3.1,2.3,6,1.8,9.7,1.7
					c3.3-0.1,6.6,0.8,9.8,0.1c5.9-1.3,10.4-7.8,10.5-13.5c0.1-4.7-6.4-5.2-7.9-1.1c-1,2.9-1.8,5.9-2.2,8.9c2.6,0.4,5.2,0.7,7.9,1.1
					c0-5.3,1.4-12.7-0.9-17.6c-2.1-4.5-6.2-4.5-10.4-3.9c-4.2,0.6-6.8,2.6-7.2,7c-0.2,1.9-0.1,4,0.8,5.8c1.2,2.4,3.4,2.6,5.2,4.2
					c0.9-2.3,1.9-4.6,2.8-6.8c-3-0.2-5.9-0.7-8.8-1.6c-0.4,2.6-0.7,5.2-1.1,7.9c3.9,0.2,9.6,1.6,12.6-1.6c1.8-1.9,1.4-4.9-0.8-6.3
					c-3.9-2.5-8.9-3.7-13.3-2.1c-3.9,1.4-5.9,5.6-3.7,9.4c2.3,3.9,6.8,3.9,10.8,3.4c1.8-0.3,3.5-0.5,4.8-1.9
					c1.9-2.3,1.1-5.4,4.6-6.5c4.9-1.4,2.8-9.2-2.1-7.7c-5.3,1.5-7.1,5-9.1,9.7c0.8-0.6,1.6-1.2,2.4-1.8c-1.8,0.5-3.6-0.3-3.7,1.7
					c-0.1,1.6,3.8,1.8,5.4,2.8c-0.3-2.1-0.5-4.2-0.8-6.3c-0.2,0.2-0.4,0.4-0.6,0.6c0.9-0.4,1.9-0.8,2.8-1.2c-3,0.4-6.2-0.1-9.2-0.2
					c-4.6-0.2-5.3,6.6-1.1,7.9c3.6,1.1,7.2,1.6,10.9,1.8c3.5,0.2,5.3-4.5,2.8-6.8c-1-0.9-2.9-1.5-3.7-2.4c-0.2-0.2,0-1.8,0.1-1.9
					c-1.1,1.3,1.4,0.5,1.7,0.7c2.2,1.5,0.9,10.7,0.9,13.7c0,4.3,7.2,5.6,7.9,1.1c0.5-3.1,1.2-6,2.2-8.9c-2.6-0.4-5.2-0.7-7.9-1.1
					c-0.1,3.6-3.3,5.7-6.4,5.8c-1.5,0-3-0.3-4.4-0.3c-1.3,0-2.9,0.5-4.2,0.3c-3.1-0.6-5.1-6.1-3-9c1.2-1.7,6.7-1.2,8.9-1.4
					C94.1,206.1,94.1,198,88.9,198.4L88.9,198.4z"/>
			</g>
		</g>
		<g>
			<path class="st0" d="M141.9,158.9c-0.5-0.4-1.3-0.1-1.6,0.4s-0.4,1.2-0.5,1.8c-0.2,2.4-0.4,4.8-0.6,7.2c-0.1,1-0.1,2.1,0.6,2.7
				c0.6,0.5,1.6,0.4,2.4,0.5c2.7,0.1,5.1,1.9,7.8,2c1.4,0.1,2.7-0.3,4.1-0.7c2.2-0.7,4.4-1.3,6.7-2c0.2-3.7,0.1-7.5-0.2-11.2
				c0-0.3-0.1-0.6-0.3-0.8c-0.2-0.1-0.4-0.2-0.7-0.2c-3.8-0.2-7.5-0.4-11.3-0.5c-0.6,0-1.3,0-1.7,0.4c-0.3,0.3-0.4,0.7-0.4,1.1
				c-0.1,1.1-0.1,2.2,0.2,3.3c0.1,0.5,0.3,0.9,0.6,1.2c0.5,0.4,1.1,0.4,1.7,0.4c2.8,0,5.7,0,8.5,0"/>
			<g>
				<path class="st0" d="M141.9,153.4c-4.7-0.6-7.2,3.7-7.6,7.7c-0.5,4.2-1.8,9.7,1.2,13.2c1.6,1.9,3.7,2.2,6,2.6
					c2.2,0.3,4.2,1.4,6.4,1.8c4.8,0.9,9.7-1.3,14.3-2.6c2.4-0.7,3.9-2.8,4-5.3c0.2-4.7,1.6-13.9-3.3-16.8c-2.4-1.4-5.7-1-8.3-1.2
					c-3-0.1-6.6-0.8-9.5,0.2c-4.9,1.8-5.6,8.4-3.7,12.7c2.6,5.9,10.5,4.3,15.7,4.3c7.1,0,7.1-11,0-11c-2,0-4.9-0.5-6.8,0
					c-2.9-0.4-2.4,0.4,1.3,2.4c-0.2-0.6-0.1-1.1,0.2-1.6c-0.8,1.1-1.7,2.2-2.5,3.3c-1.6,0.4-1.4,0.5,0.5,0.4c1.1,0,2.2,0.1,3.2,0.1
					c1.8,0.1,4-0.2,5.7,0.3c-1.3-1.3-2.6-2.6-3.8-3.8c1.1,2.9,0.5,7.5,0.3,10.6c1.3-1.8,2.7-3.5,4-5.3c-2.6,0.8-6.4,2.7-9.1,2.5
					c-1.2-0.1-2.7-0.9-3.8-1.3c-1.6-0.5-3.4-0.4-5-1c1.1,0.8,2.2,1.7,3.3,2.5c-0.4-0.5,0.6-6.4,1-7.5c-0.8,1.1-1.7,2.2-2.5,3.3
					c-0.4,0.1-0.8,0.2-1.1,0.3c3,0.4,5.5-2.8,5.5-5.5C147.4,155.6,144.8,153.7,141.9,153.4L141.9,153.4z"/>
			</g>
		</g>
		<g>
			<path class="st0" d="M207,157.9c-1.5,0.2-2.9,0.3-4.4,0.5c-0.4,0-0.8,0.1-1,0.3c-0.3,0.3-0.4,0.7-0.5,1.1
				c-0.4,2.3-0.6,4.6-0.4,6.9c0.2,1.8,0.7,4,2.4,4.7c-0.4,0-0.8,0.1-1.2,0.1c1.6-0.4,3.2,0.8,4.8,0.5c0.4-0.1,0.8-0.3,1.2-0.4
				c1.8-0.4,3.5,1.4,5.4,1.5c1.5,0.1,2.9-1,4.4-1.1c1.1-0.1,2.3,0.4,3.2-0.3c0.5-0.4,0.7-1,0.9-1.6c0.9-3.4,1-7.1,0.3-10.5
				c-0.1-0.3-0.2-0.7-0.4-0.9c-0.3-0.3-0.7-0.3-1-0.3c-1.8-0.1-3.6,0.9-5.3,0.5c-0.6-0.1-1.1-0.4-1.7-0.4c-0.7,0-1.3,0.4-1.9,0.8
				c-1.1,0.7-2.3,1.5-2.6,2.7c0,0.1-0.1,0.3,0,0.4c0.1,0.2,0.3,0.2,0.5,0.3c1.3,0.3,2.8,0.2,4.1,0.5c1.3,0.3,2.7,1.5,2.4,2.9"/>
			<g>
				<path class="st0" d="M207,152.4c-2.6,0.3-6,0.2-8.2,1.6c-2.7,1.7-3.2,4.9-3.5,7.9c-0.5,5.5,0.2,11,5.1,14.2
					c0.9-3.4,1.9-6.8,2.8-10.2c-0.4,0-0.8,0.1-1.2,0.1c-6.9,0.7-7.2,11.4,0,11c1.6-0.1,3.2,0.5,4.8,0.5c2.9,0,0.5-0.5,2.3-0.1
					c0.8,0.2,1.5,0.6,2.3,0.8c1.7,0.4,3.4,0.3,5.1-0.2c1.7-0.5,3.3-0.3,4.9-0.7c7.6-1.8,8.1-14.8,5.5-20.6c-1.7-3.8-5.3-4-9-3.7
					c-3.5,0.3-6.2-0.5-9.5,1.7c-2.9,1.9-5.7,5.3-4.6,9c0.5,1.8,1.9,3.1,3.6,3.8c0.9,0.4,1.8,0.5,2.7,0.6c0.5,0.1,0.9,0.1,1.4,0.2
					c1.5,0.3,1.2-0.5-1-2.4c0.6,7,11.6,7.1,11,0c-0.2-2.6-1-4.7-3-6.4c-1-0.8-2.1-1.5-3.4-1.8c-0.8-0.2-2.8,0-3.3-0.2
					c0.9,1.6,1.8,3.2,2.7,4.7c0.4,1.6-0.1,2.1-1.6,1.5c0.7,0.3,1.5,0.4,2.3,0.4c1.4,0.1,3.6-0.8,4.9-0.4c-1.1-0.8-2.2-1.7-3.3-2.5
					c0.4,0.9,0.1,3.3,0,4.2c0,0.4-0.7,2.9-0.5,3c2.8-1.5,3.4-2.2,1.8-2.1c-0.7-0.1-1.3,0-2,0.2c-0.7,0.1-1.8,0.7-2.4,0.8
					c-1.6,0.1-3.5-1.3-5.4-1.3c-2.1,0-4.4-0.2-6.5-0.1c0,3.7,0,7.3,0,11c0.4,0,0.8-0.1,1.2-0.1c5.3-0.6,7.6-7.1,2.8-10.2
					c0.2,0.1,0.1-4.4,0.4-5.1c-1.1,0.8-2.2,1.7-3.3,2.5c1.3-0.4,2.6-0.5,4-0.7c3-0.4,5.5-2.3,5.5-5.5C212.6,155.2,210,152,207,152.4
					L207,152.4z"/>
			</g>
		</g>
		<g>
			<path class="st0" d="M216.9,204.9c-4.2,0.1-8.5,0-12.7-0.4c-0.5,0-1-0.1-1.5,0.1c-0.7,0.2-1.2,0.8-1.5,1.5
				c-0.6,1.3-0.6,2.7-0.6,4.1c0,1.5,0,3,0,4.5c0,1.3,0,2.6,0.8,3.7c0.9,1.3,2.6,1.7,4.1,1.6c1.5-0.1,3-0.6,4.5-0.9
				c3-0.5,6.1,0.2,9.1,0.6c0.7,0.1,1.5,0.2,2.1-0.2c0.7-0.4,1.1-1.3,1.2-2.1s-0.1-1.7-0.1-2.5c-0.1-2.1,0.5-4.1,0.4-6.1
				c-0.1-2.1-1.5-4.3-3.5-4.4c-1.6-0.1-2.9,1.2-3.7,2.5s-1.4,2.8-2.5,4c-1.2,1.3-3,1.9-4.8,1.8c0.4,0,0.8,0,1.2,0"/>
			<g>
				<path class="st0" d="M216.9,199.4c-2.9,0.1-5.8,0.1-8.7-0.1c-2.8-0.2-5.6-0.8-8.2,0.5c-4.5,2.2-4.8,7.5-4.8,11.9
					c0,5,0.2,10.3,5.3,12.8c4.8,2.3,10-0.3,15,0.2c4.9,0.6,10,1,12.1-4.6c0.8-2.2,0.3-4.5,0.4-6.7c0.1-2.6,0.6-5-0.2-7.6
					c-1.3-4.4-5.3-7.4-9.9-6.7c-2.1,0.3-4,1.4-5.4,2.9c-1.1,1.2-2.5,5-4.1,5.1c-7.1,0.1-7.1,11,0,11c0.4,0,0.8,0,1.2,0
					c7.1,0,7.1-11,0-11c-0.4,0-0.8,0-1.2,0c0,3.7,0,7.3,0,11c4.4-0.1,9.6-2.4,11.1-6.9c0.3-0.5,0.6-1,0.9-1.5c-1-0.1-2-0.3-3-0.4
					c-0.3,0.3-0.3,2.9-0.3,3.4c0,0.4-0.5,3.3,0,3.6c2.6-1.3,3-2,1.4-2c-0.7-0.1-1.5-0.2-2.2-0.3c-2.6-0.3-5-0.4-7.6,0
					c-0.7,0.1-3.2,0.4-2.7,0.8c0.5,0.5,0.3-2.4,0.3-2.9c0-0.7,0-1.5,0-2.2c0.2-1.4-0.4-1.2-1.9,0.5c0,0.1,3.7,0.3,3.9,0.3
					c2.9,0.2,5.8,0.2,8.7,0.1C224,210.2,224,199.2,216.9,199.4L216.9,199.4z"/>
			</g>
		</g>
		<g>
			<path class="st0" d="M155.3,204.6c-4.6,0.6-9.1-0.4-13.7-1.3c-0.4-0.1-0.9-0.2-1.3,0c-0.4,0.2-0.7,0.7-0.8,1.1
				c-0.8,2-1.2,4-1.3,6.1c-0.1,1.7,0,3.4,0.7,5c0.6,1.6,1.9,3,3.4,3.6c1.4,0.5,3,0.4,4.5,0.3c1.7-0.2,3.4-0.3,5-0.5
				c1.2-0.1,2.5-0.2,3.7-0.5c2-0.5,3.9-1.5,5.7-2.5c0.2-0.1,0.4-0.2,0.5-0.4c0.1-0.2,0.1-0.5,0.1-0.8c-0.2-1.9-0.3-3.7-0.5-5.6
				c-0.1-1.4-0.3-2.8-1.3-3.8c-1.1-1-2.8-0.9-4.2-0.8c-1.8,0.2-4,0.7-4.7,2.4c-0.4,0.9-0.3,1.9-0.6,2.9c-0.4,1.3-1.6,2.2-2.9,2.6
				c-1.3,0.5-2.6,0.5-3.9,0.6c2.2,0.5,4.5,0.2,6.7,0s4.6-0.2,6.6,0.7c2,0.9,3.7,3,3.4,5.3c-0.6-0.6-0.8-1.6-0.5-2.4"/>
			<g>
				<path class="st0" d="M155.3,199.1c-3.3,0.3-6.4,0-9.6-0.6c-2.4-0.4-5-1.2-7.4-0.2c-4.4,1.8-5.4,8.2-5.5,12.3
					c-0.2,5.1,1.6,10.4,6.3,13c4.5,2.5,10.6,1.2,15.4,0.6c3.9-0.5,10.1-2.2,12.2-5.9c2.1-3.6,0.8-11.7-1.3-15.1
					c-2.5-4.1-7.6-4.7-12-3.6c-1.9,0.5-4,1.3-5.4,2.8c-1.8,1.8-1.5,5.2-4.1,5.3c-7.3,0.4-6.9,10.1,0,11c0.9,0.1,11.2-0.3,11.2,0.5
					c3.4-0.9,6.8-1.9,10.2-2.8c0.1,0.1,0.1,0.3,0.2,0.4c0.5-7.1-10.5-7-11,0c-0.1,2,0.3,3.4,1.3,5.1c2.6,4.6,10.5,2.7,10.2-2.8
					c-0.2-4.6-2.5-8.4-6.8-10.3c-5-2.2-10.2-0.6-15.4-1.2c0,3.7,0,7.3,0,11c4.6-0.3,9.3-1.4,11.5-5.9c0.4-0.8,0.4-2,0.8-2.8
					c-1.3,2.2,0.2-1,0.5,0.1c0.8,0,0.6-0.3-0.7-0.9c0.1,0.6,0.1,1.2,0.2,1.9c-0.3,1.4,0.4,3,0.2,4.5c0.5-1.3,1.1-2.6,1.6-3.9
					c-2.6,2.1-7.1,2-10.3,2.2c-2.3,0.2-3.1,0.8-4-1.6c-0.3-0.7,0-4.6,0.5-5.1c-1.3,0.5-2.6,1.1-3.9,1.6c5-0.2,9.8,1.7,15,1.2
					C162.3,209.4,162.4,198.4,155.3,199.1L155.3,199.1z"/>
			</g>
		</g>
	</g>
	<g>
		<g>
			<g>
				<path class="st1" d="M94.5,156.6c-4.3,0.1-8.2-0.6-12.2-2.1c-0.4,2.6-0.7,5.2-1.1,7.9c3.2-0.1,6.2,0.2,9.3,0.8
					c0.4-2.6,0.7-5.2,1.1-7.9c-3.9,0.1-7.7,0.2-11.1-1.9c-2.1-1.3-5.3-0.1-5.9,2.4c-1.3,6.5-4.4,15.4,2,20.2
					c6.1,4.6,18.1,1.6,24.8-0.1c-1-2.4-2.1-4.9-3.1-7.3c-0.3,0.1-0.6,0.3-0.9,0.4c1.8,1.8,3.6,3.6,5.5,5.5c0.2-0.4,0.3-0.7,0.5-1.1
					c2-4.6-4.5-8.7-6.9-4c-0.4,0.6-0.8,1.1-1.2,1.7c2.3,0.9,4.6,1.9,6.8,2.8c0.3-3.1,4-5.5,4.6-8.8c0.6-3.2-0.5-7.6-2.8-10
					c-2.8-2.8-8-2.2-11.6-2.5c-3.7-0.3-8.6-1.7-12,0.2c-3.2,1.7-2.1,6.3,1,7.3c3.1,1,6.2,2.1,9.2,3.1c-0.8-2-1.6-3.9-2.4-5.9
					c-0.1,0.3-0.3,0.5-0.4,0.8c0.8-0.6,1.6-1.2,2.4-1.8c-3.5,1.4-7.7,1.9-11.5,2.7c-3.5,0.8-3.7,5.5-1,7.3c4,2.6,8.4,2.9,13.1,2.7
					c-0.7-2.5-1.3-5-2-7.5c-1.6,0.8-3.3,1.5-4.9,2.3c-4.1,1.9-1.2,8.7,3.1,7.3c3.1-1,6.8-2.9,10.1-3.1c-0.4-2.6-0.7-5.2-1.1-7.9
					c-5,1.9-10,3-15.4,3.1c-4.5,0.1-5.4,6.5-1.1,7.9c2.4,0.7,4.9,1.2,7.5,1.3c0.9,0,6.5-1.2,6.7-1.1c-0.6-0.8-1.2-1.6-1.8-2.4
					c0,0.2,0.1,0.5,0.1,0.7c0.8,5.1,8.5,2.9,7.7-2.1c-0.4-2.9-2.8-4-5.4-4c-4.5,0-8,1.3-12.6-0.1c-0.4,2.6-0.7,5.2-1.1,7.9
					c6.1-0.1,11.9-1.2,17.5-3.4c3.9-1.5,3.8-8.1-1.1-7.9c-4.2,0.2-8.2,2-12.2,3.3c1,2.4,2.1,4.9,3.1,7.3c1.6-0.8,3.3-1.5,4.9-2.3
					c3.7-1.7,1.8-7.5-2-7.5c-3.2,0.1-6.2,0.2-9-1.7c-0.3,2.4-0.6,4.9-1,7.3c4.4-1,11.9-0.9,14.3-5.3c1.3-2.4,0.1-5-2.4-5.9
					c-3.1-1-6.2-2.1-9.2-3.1c0.3,2.4,0.6,4.9,1,7.3c-1.7,0.9,1,0.4,2,0.5c1.6,0.1,3.3,0.2,4.9,0.4c1.6,0.1,3.3,0.4,4.9,0.4
					c1.7-0.1,1.9-0.6,2.4,1.2c0.6,2.3-1.5,4-2.6,5.8c-1.2,2-1.8,3.6-2,5.9c-0.3,3.6,4.5,5.1,6.8,2.8c1.2-1.2,1.7-1.8,2.4-3.3
					c-2.3-1.3-4.6-2.7-6.9-4c-0.2,0.4-0.3,0.7-0.5,1.1c-1.6,3.8,1.7,7.2,5.5,5.5c0.3-0.1,0.6-0.3,0.9-0.4c4.3-1.9,1.2-8.4-3.1-7.3
					c-4.4,1.1-10.4,2.7-14.9,1.7c-2,0.4-3.2-0.5-3.8-2.8c0.1-1.1,0.2-2.2,0.5-3.3c0.4-2,0.8-4,1.2-5.9c-2,0.8-3.9,1.6-5.9,2.4
					c4.7,2.8,9.8,3.1,15.2,3c4.3-0.1,5.6-6.9,1.1-7.9c-3.8-0.8-7.5-1.2-11.4-1.1c-4.7,0.1-5.2,6.3-1.1,7.9c4.7,1.7,9.4,2.5,14.4,2.4
					C99.7,164.5,99.7,156.5,94.5,156.6L94.5,156.6z"/>
			</g>
		</g>
		<g>
			<g>
				<path class="st1" d="M88.9,198.4c-6.3,0.4-14.3-0.9-16.5,6.5c-1.7,5.8-1.6,13.9,3.6,17.9c3.1,2.3,6,1.8,9.7,1.7
					c3.3-0.1,6.6,0.8,9.8,0.1c5.9-1.3,10.4-7.8,10.5-13.5c0.1-4.7-6.4-5.2-7.9-1.1c-1,2.9-1.8,5.9-2.2,8.9c2.6,0.4,5.2,0.7,7.9,1.1
					c0-5.3,1.4-12.7-0.9-17.6c-2.1-4.5-6.2-4.5-10.4-3.9c-4.2,0.6-6.8,2.6-7.2,7c-0.2,1.9-0.1,4,0.8,5.8c1.2,2.4,3.4,2.6,5.2,4.2
					c0.9-2.3,1.9-4.6,2.8-6.8c-3-0.2-5.9-0.7-8.8-1.6c-0.4,2.6-0.7,5.2-1.1,7.9c3.9,0.2,9.6,1.6,12.6-1.6c1.8-1.9,1.4-4.9-0.8-6.3
					c-3.9-2.5-8.9-3.7-13.3-2.1c-3.9,1.4-5.9,5.6-3.7,9.4c2.3,3.9,6.8,3.9,10.8,3.4c1.8-0.3,3.5-0.5,4.8-1.9
					c1.9-2.3,1.1-5.4,4.6-6.5c4.9-1.4,2.8-9.2-2.1-7.7c-5.3,1.5-7.1,5-9.1,9.7c0.8-0.6,1.6-1.2,2.4-1.8c-1.8,0.5-3.6-0.3-3.7,1.7
					c-0.1,1.6,3.8,1.8,5.4,2.8c-0.3-2.1-0.5-4.2-0.8-6.3c-0.2,0.2-0.4,0.4-0.6,0.6c0.9-0.4,1.9-0.8,2.8-1.2c-3,0.4-6.2-0.1-9.2-0.2
					c-4.6-0.2-5.3,6.6-1.1,7.9c3.6,1.1,7.2,1.6,10.9,1.8c3.5,0.2,5.3-4.5,2.8-6.8c-1-0.9-2.9-1.5-3.7-2.4c-0.2-0.2,0-1.8,0.1-1.9
					c-1.1,1.3,1.4,0.5,1.7,0.7c2.2,1.5,0.9,10.7,0.9,13.7c0,4.3,7.2,5.6,7.9,1.1c0.5-3.1,1.2-6,2.2-8.9c-2.6-0.4-5.2-0.7-7.9-1.1
					c-0.1,3.6-3.3,5.7-6.4,5.8c-1.5,0-3-0.3-4.4-0.3c-1.3,0-2.9,0.5-4.2,0.3c-3.1-0.6-5.1-6.1-3-9c1.2-1.7,6.7-1.2,8.9-1.4
					C94.1,206.1,94.1,198,88.9,198.4L88.9,198.4z"/>
			</g>
		</g>
		<g>
			<g>
				<path class="st1" d="M141.9,153.4c-4.7-0.6-7.2,3.7-7.6,7.7c-0.5,4.2-1.8,9.7,1.2,13.2c1.6,1.9,3.7,2.2,6,2.6
					c2.2,0.3,4.2,1.4,6.4,1.8c4.8,0.9,9.7-1.3,14.3-2.6c2.4-0.7,3.9-2.8,4-5.3c0.2-4.7,1.6-13.9-3.3-16.8c-2.4-1.4-5.7-1-8.3-1.2
					c-3-0.1-6.6-0.8-9.5,0.2c-4.9,1.8-5.6,8.4-3.7,12.7c2.6,5.9,10.5,4.3,15.7,4.3c7.1,0,7.1-11,0-11c-2,0-4.9-0.5-6.8,0
					c-2.9-0.4-2.4,0.4,1.3,2.4c-0.2-0.6-0.1-1.1,0.2-1.6c-0.8,1.1-1.7,2.2-2.5,3.3c-1.6,0.4-1.4,0.5,0.5,0.4c1.1,0,2.2,0.1,3.2,0.1
					c1.8,0.1,4-0.2,5.7,0.3c-1.3-1.3-2.6-2.6-3.8-3.8c1.1,2.9,0.5,7.5,0.3,10.6c1.3-1.8,2.7-3.5,4-5.3c-2.6,0.8-6.4,2.7-9.1,2.5
					c-1.2-0.1-2.7-0.9-3.8-1.3c-1.6-0.5-3.4-0.4-5-1c1.1,0.8,2.2,1.7,3.3,2.5c-0.4-0.5,0.6-6.4,1-7.5c-0.8,1.1-1.7,2.2-2.5,3.3
					c-0.4,0.1-0.8,0.2-1.1,0.3c3,0.4,5.5-2.8,5.5-5.5C147.4,155.6,144.8,153.7,141.9,153.4L141.9,153.4z"/>
			</g>
		</g>
		<g>
			<g>
				<path class="st1" d="M207,152.4c-2.6,0.3-6,0.2-8.2,1.6c-2.7,1.7-3.2,4.9-3.5,7.9c-0.5,5.5,0.2,11,5.1,14.2
					c0.9-3.4,1.9-6.8,2.8-10.2c-0.4,0-0.8,0.1-1.2,0.1c-6.9,0.7-7.2,11.4,0,11c1.6-0.1,3.2,0.5,4.8,0.5c2.9,0,0.5-0.5,2.3-0.1
					c0.8,0.2,1.5,0.6,2.3,0.8c1.7,0.4,3.4,0.3,5.1-0.2c1.7-0.5,3.3-0.3,4.9-0.7c7.6-1.8,8.1-14.8,5.5-20.6c-1.7-3.8-5.3-4-9-3.7
					c-3.5,0.3-6.2-0.5-9.5,1.7c-2.9,1.9-5.7,5.3-4.6,9c0.5,1.8,1.9,3.1,3.6,3.8c0.9,0.4,1.8,0.5,2.7,0.6c0.5,0.1,0.9,0.1,1.4,0.2
					c1.5,0.3,1.2-0.5-1-2.4c0.6,7,11.6,7.1,11,0c-0.2-2.6-1-4.7-3-6.4c-1-0.8-2.1-1.5-3.4-1.8c-0.8-0.2-2.8,0-3.3-0.2
					c0.9,1.6,1.8,3.2,2.7,4.7c0.4,1.6-0.1,2.1-1.6,1.5c0.7,0.3,1.5,0.4,2.3,0.4c1.4,0.1,3.6-0.8,4.9-0.4c-1.1-0.8-2.2-1.7-3.3-2.5
					c0.4,0.9,0.1,3.3,0,4.2c0,0.4-0.7,2.9-0.5,3c2.8-1.5,3.4-2.2,1.8-2.1c-0.7-0.1-1.3,0-2,0.2c-0.7,0.1-1.8,0.7-2.4,0.8
					c-1.6,0.1-3.5-1.3-5.4-1.3c-2.1,0-4.4-0.2-6.5-0.1c0,3.7,0,7.3,0,11c0.4,0,0.8-0.1,1.2-0.1c5.3-0.6,7.6-7.1,2.8-10.2
					c0.2,0.1,0.1-4.4,0.4-5.1c-1.1,0.8-2.2,1.7-3.3,2.5c1.3-0.4,2.6-0.5,4-0.7c3-0.4,5.5-2.3,5.5-5.5C212.6,155.2,210,152,207,152.4
					L207,152.4z"/>
			</g>
		</g>
		<g>
			<path class="st2" d="M216.9,204.9c-4.2,0.1-8.5,0-12.7-0.4c-0.5,0-1-0.1-1.5,0.1c-0.7,0.2-1.2,0.8-1.5,1.5
				c-0.6,1.3-0.6,2.7-0.6,4.1c0,1.5,0,3,0,4.5c0,1.3,0,2.6,0.8,3.7c0.9,1.3,2.6,1.7,4.1,1.6c1.5-0.1,3-0.6,4.5-0.9
				c3-0.5,6.1,0.2,9.1,0.6c0.7,0.1,1.5,0.2,2.1-0.2c0.7-0.4,1.1-1.3,1.2-2.1s-0.1-1.7-0.1-2.5c-0.1-2.1,0.5-4.1,0.4-6.1
				c-0.1-2.1-1.5-4.3-3.5-4.4c-1.6-0.1-2.9,1.2-3.7,2.5s-1.4,2.8-2.5,4c-1.2,1.3-3,1.9-4.8,1.8c0.4,0,0.8,0,1.2,0"/>
			<g>
				<path class="st1" d="M216.9,199.4c-2.9,0.1-5.8,0.1-8.7-0.1c-2.8-0.2-5.6-0.8-8.2,0.5c-4.5,2.2-4.8,7.5-4.8,11.9
					c0,5,0.2,10.3,5.3,12.8c4.8,2.3,10-0.3,15,0.2c4.9,0.6,10,1,12.1-4.6c0.8-2.2,0.3-4.5,0.4-6.7c0.1-2.6,0.6-5-0.2-7.6
					c-1.3-4.4-5.3-7.4-9.9-6.7c-2.1,0.3-4,1.4-5.4,2.9c-1.1,1.2-2.5,5-4.1,5.1c-7.1,0.1-7.1,11,0,11c0.4,0,0.8,0,1.2,0
					c7.1,0,7.1-11,0-11c-0.4,0-0.8,0-1.2,0c0,3.7,0,7.3,0,11c4.4-0.1,9.6-2.4,11.1-6.9c0.3-0.5,0.6-1,0.9-1.5c-1-0.1-2-0.3-3-0.4
					c-0.3,0.3-0.3,2.9-0.3,3.4c0,0.4-0.5,3.3,0,3.6c2.6-1.3,3-2,1.4-2c-0.7-0.1-1.5-0.2-2.2-0.3c-2.6-0.3-5-0.4-7.6,0
					c-0.7,0.1-3.2,0.4-2.7,0.8c0.5,0.5,0.3-2.4,0.3-2.9c0-0.7,0-1.5,0-2.2c0.2-1.4-0.4-1.2-1.9,0.5c0,0.1,3.7,0.3,3.9,0.3
					c2.9,0.2,5.8,0.2,8.7,0.1C224,210.2,224,199.2,216.9,199.4L216.9,199.4z"/>
			</g>
		</g>
		<g>
			<g>
				<path class="st1" d="M155.3,199.1c-3.3,0.3-6.4,0-9.6-0.6c-2.4-0.4-5-1.2-7.4-0.2c-4.4,1.8-5.4,8.2-5.5,12.3
					c-0.2,5.1,1.6,10.4,6.3,13c4.5,2.5,10.6,1.2,15.4,0.6c3.9-0.5,10.1-2.2,12.2-5.9c2.1-3.6,0.8-11.7-1.3-15.1
					c-2.5-4.1-7.6-4.7-12-3.6c-1.9,0.5-4,1.3-5.4,2.8c-1.8,1.8-1.5,5.2-4.1,5.3c-7.3,0.4-6.9,10.1,0,11c0.9,0.1,11.2-0.3,11.2,0.5
					c3.4-0.9,6.8-1.9,10.2-2.8c0.1,0.1,0.1,0.3,0.2,0.4c0.5-7.1-10.5-7-11,0c-0.1,2,0.3,3.4,1.3,5.1c2.6,4.6,10.5,2.7,10.2-2.8
					c-0.2-4.6-2.5-8.4-6.8-10.3c-5-2.2-10.2-0.6-15.4-1.2c0,3.7,0,7.3,0,11c4.6-0.3,9.3-1.4,11.5-5.9c0.4-0.8,0.4-2,0.8-2.8
					c-1.3,2.2,0.2-1,0.5,0.1c0.8,0,0.6-0.3-0.7-0.9c0.1,0.6,0.1,1.2,0.2,1.9c-0.3,1.4,0.4,3,0.2,4.5c0.5-1.3,1.1-2.6,1.6-3.9
					c-2.6,2.1-7.1,2-10.3,2.2c-2.3,0.2-3.1,0.8-4-1.6c-0.3-0.7,0-4.6,0.5-5.1c-1.3,0.5-2.6,1.1-3.9,1.6c5-0.2,9.8,1.7,15,1.2
					C162.3,209.4,162.4,198.4,155.3,199.1L155.3,199.1z"/>
			</g>
		</g>
	</g>
	<g>
		<g>
			<g>
				<path class="st1" d="M94.5,156.6c-4.3,0.1-8.2-0.6-12.2-2.1c-0.4,2.6-0.7,5.2-1.1,7.9c3.2-0.1,6.2,0.2,9.3,0.8
					c0.4-2.6,0.7-5.2,1.1-7.9c-3.9,0.1-7.7,0.2-11.1-1.9c-2.1-1.3-5.3-0.1-5.9,2.4c-1.3,6.5-4.4,15.4,2,20.2
					c6.1,4.6,18.1,1.6,24.8-0.1c-1-2.4-2.1-4.9-3.1-7.3c-0.3,0.1-0.6,0.3-0.9,0.4c1.8,1.8,3.6,3.6,5.5,5.5c0.2-0.4,0.3-0.7,0.5-1.1
					c2-4.6-4.5-8.7-6.9-4c-0.4,0.6-0.8,1.1-1.2,1.7c2.3,0.9,4.6,1.9,6.8,2.8c0.3-3.1,4-5.5,4.6-8.8c0.6-3.2-0.5-7.6-2.8-10
					c-2.8-2.8-8-2.2-11.6-2.5c-3.7-0.3-8.6-1.7-12,0.2c-3.2,1.7-2.1,6.3,1,7.3c3.1,1,6.2,2.1,9.2,3.1c-0.8-2-1.6-3.9-2.4-5.9
					c-0.1,0.3-0.3,0.5-0.4,0.8c0.8-0.6,1.6-1.2,2.4-1.8c-3.5,1.4-7.7,1.9-11.5,2.7c-3.5,0.8-3.7,5.5-1,7.3c4,2.6,8.4,2.9,13.1,2.7
					c-0.7-2.5-1.3-5-2-7.5c-1.6,0.8-3.3,1.5-4.9,2.3c-4.1,1.9-1.2,8.7,3.1,7.3c3.1-1,6.8-2.9,10.1-3.1c-0.4-2.6-0.7-5.2-1.1-7.9
					c-5,1.9-10,3-15.4,3.1c-4.5,0.1-5.4,6.5-1.1,7.9c2.4,0.7,4.9,1.2,7.5,1.3c0.9,0,6.5-1.2,6.7-1.1c-0.6-0.8-1.2-1.6-1.8-2.4
					c0,0.2,0.1,0.5,0.1,0.7c0.8,5.1,8.5,2.9,7.7-2.1c-0.4-2.9-2.8-4-5.4-4c-4.5,0-8,1.3-12.6-0.1c-0.4,2.6-0.7,5.2-1.1,7.9
					c6.1-0.1,11.9-1.2,17.5-3.4c3.9-1.5,3.8-8.1-1.1-7.9c-4.2,0.2-8.2,2-12.2,3.3c1,2.4,2.1,4.9,3.1,7.3c1.6-0.8,3.3-1.5,4.9-2.3
					c3.7-1.7,1.8-7.5-2-7.5c-3.2,0.1-6.2,0.2-9-1.7c-0.3,2.4-0.6,4.9-1,7.3c4.4-1,11.9-0.9,14.3-5.3c1.3-2.4,0.1-5-2.4-5.9
					c-3.1-1-6.2-2.1-9.2-3.1c0.3,2.4,0.6,4.9,1,7.3c-1.7,0.9,1,0.4,2,0.5c1.6,0.1,3.3,0.2,4.9,0.4c1.6,0.1,3.3,0.4,4.9,0.4
					c1.7-0.1,1.9-0.6,2.4,1.2c0.6,2.3-1.5,4-2.6,5.8c-1.2,2-1.8,3.6-2,5.9c-0.3,3.6,4.5,5.1,6.8,2.8c1.2-1.2,1.7-1.8,2.4-3.3
					c-2.3-1.3-4.6-2.7-6.9-4c-0.2,0.4-0.3,0.7-0.5,1.1c-1.6,3.8,1.7,7.2,5.5,5.5c0.3-0.1,0.6-0.3,0.9-0.4c4.3-1.9,1.2-8.4-3.1-7.3
					c-4.4,1.1-10.4,2.7-14.9,1.7c-2,0.4-3.2-0.5-3.8-2.8c0.1-1.1,0.2-2.2,0.5-3.3c0.4-2,0.8-4,1.2-5.9c-2,0.8-3.9,1.6-5.9,2.4
					c4.7,2.8,9.8,3.1,15.2,3c4.3-0.1,5.6-6.9,1.1-7.9c-3.8-0.8-7.5-1.2-11.4-1.1c-4.7,0.1-5.2,6.3-1.1,7.9c4.7,1.7,9.4,2.5,14.4,2.4
					C99.7,164.5,99.7,156.5,94.5,156.6L94.5,156.6z"/>
			</g>
			<g>
				<g>
					<path class="st1" d="M94.5,152.6c-3.9,0-7.5-0.7-11.2-2c-1.9-0.6-4.6,0.7-4.9,2.8c-0.4,2.6-0.7,5.2-1.1,7.9
						c-0.3,2.5,1,5.1,3.9,5.1c2.8,0,5.4,0.2,8.2,0.7c1.9,0.3,4.6-0.5,4.9-2.8c0.4-2.6,0.7-5.2,1.1-7.9c0.3-2.5-1-5.1-3.9-5.1
						c-2.3,0.1-4.8,0.2-7-0.4c-1.8-0.5-3.2-1.6-5.1-1.8c-2.8-0.4-5.6,0.7-7.4,3c-3.3,4.2-4.2,13.7-3.2,18.8
						c3.1,15.6,22.5,11.8,33.5,9.1c1.9-0.5,3.6-3,2.8-4.9c-1-2.4-2.1-4.9-3.1-7.3c-1.1-2.6-3.3-3.5-5.9-2.4
						c-0.3,0.1-0.6,0.3-0.9,0.4c-2.4,1.1-2.5,4.6-0.8,6.3c1.8,1.8,3.6,3.6,5.5,5.5c1.6,1.6,5.2,1.6,6.3-0.8c2-4.5,1.8-9.7-3.2-12.3
						c-5.2-2.6-8.5,0.8-11.3,4.8c-1.7,2.3,0.2,5,2.4,5.9c2.3,0.9,4.6,1.9,6.8,2.8c1.9,0.8,4.5-0.9,4.9-2.8c0.7-3.2,3.8-5.4,4.6-8.8
						c0.8-3.2,0.2-6.8-1.1-9.7c-3.4-7.8-10.6-7.2-17.9-7.9c-5.9-0.5-15.7-2-17.1,6.1c-1.5,8.6,9,10.4,14.9,12.4
						c2.7,0.9,6.1-2.1,4.9-4.9c-0.8-2-1.6-3.9-2.4-5.9c-1.2-3-5.5-4.3-7.3-1c-0.1,0.3-0.3,0.5-0.4,0.8c-1.7,3.2,2.1,8.1,5.5,5.5
						c0.8-0.6,1.6-1.2,2.4-1.8c3.2-2.5,1.6-9-3.1-7.3c-6.1,2.2-17.9,1.5-17.2,10.9c0.6,8.7,12.2,9.8,18.9,9.7c2.6,0,4.5-2.5,3.9-5.1
						c-0.7-2.5-1.3-5-2-7.5c-0.7-2.7-3.6-3.5-5.9-2.4c-3,1.4-6.6,2.5-8.1,5.7c-1.2,2.5-0.8,5.5,0.6,7.8c4.6,7.3,11.7,1.3,17.8,0.5
						c2.8-0.3,4.2-2.3,3.9-5.1c-0.4-2.6-0.7-5.2-1.1-7.9c-0.3-2-3.1-3.5-4.9-2.8c-3.5,1.3-7.1,2.3-10.8,2.7c-2.2,0.2-4.5,0-6.5,0.9
						c-3.6,1.5-5.5,5.4-4.7,9.2c1.1,4.9,5.8,6.2,10.2,6.9c3.6,0.6,8-0.5,10.6-0.7c2.7-0.1,5.4-3.4,3.5-6c-0.6-0.8-1.2-1.6-1.8-2.4
						c-2.8-3.6-8-1.5-7.3,3.1c1.2,8.2,12.4,8.4,15.2,1.1c1.5-3.9-0.3-8.3-3.9-10.3c-5.1-2.8-11.1,0.1-16.5-1.2
						c-1.9-0.5-4.6,0.6-4.9,2.8c-0.4,2.6-0.7,5.2-1.1,7.9c-0.3,2.4,1,5.2,3.9,5.1c7.5-0.3,23.7-0.8,24.3-11.1
						c0.7-12.3-14.9-6.8-21.1-4.6c-1.8,0.6-3.7,2.8-2.8,4.9c1,2.4,2.1,4.9,3.1,7.3c1.1,2.5,3.3,3.6,5.9,2.4c5-2.4,10.6-5.1,8.4-11.7
						c-2.5-7.3-9.3-3.9-14.5-6.6c-2.9-1.6-5.6,0.5-6,3.5c-0.3,2.4-0.6,4.9-1,7.3c-0.4,2.8,2.8,4.3,5.1,3.9c6-1.2,13.9-1.3,16.9-7.6
						c4.6-9.6-8-12.3-14.2-14.4c-2.2-0.8-5.4,1.3-5.1,3.9c0.3,2.4,0.6,4.9,1,7.3c0.7-1.2,1.3-2.3,2-3.5c-0.2,0.1-0.4,0.3-0.6,0.4
						c-2.5,1.8-2.6,5.1,0,6.9c1.7,1.1,4.4,0.6,6.3,0.7c3.3,0.2,6.5,0.6,9.9,0.5c-0.9-0.4-1.9-0.8-2.8-1.2c-1.9-1.5-4.8,8.2-4.9,9.1
						c-0.3,2.8,0.4,5.3,2.6,7.1c5.3,4.3,11.1,0.5,14-4.5c1.1-1.9,0.4-4.4-1.4-5.5c-2.3-1.3-4.6-2.7-6.9-4c-1.7-1-4.6-0.6-5.5,1.4
						c-2.2,5.1-1.6,11.7,5,12.9c4.8,0.9,10.4-2.5,10.5-7.7c0.1-4.9-4.4-8.7-9.1-8.3c-3.5,0.3-6.9,1.8-10.5,2c-1.1,0.1-2.2,0-3.3-0.1
						c-1.3,0.2-1.4-0.2-0.5-1.2c-0.2-1.7,0.9-4.2,1.2-5.9c0.6-2.6-1.9-6.2-4.9-4.9c-2,0.8-3.9,1.6-5.9,2.4c-3,1.2-4.3,5.5-1,7.3
						c6.7,3.6,25.4,7.8,25.1-5c-0.1-5.6-4.8-7.2-9.6-7.9c-5-0.7-12.3-2-15.4,3.1c-7.2,11.7,13.8,15.6,21,14.4
						C105.2,166.9,104,153.4,94.5,152.6c-5.1-0.5-5.1,7.5,0,8c-1-0.1-5.1-0.2-7.1-0.6c-3.1-0.6-9.9-2.1-2.3-1.6c0.5,0,6.4,1,6.5,0.9
						c0.2-0.2-1.1,0-1.6,0c-4.1,0-7.9-0.4-11.5-2.4c-0.3,2.4-0.6,4.9-1,7.3c2-0.8,3.9-1.6,5.9-2.4c-1.6-1.6-3.3-3.3-4.9-4.9
						c-1.2,5.6-4.3,14.6,3.3,16.9c2.9,0.9,6.7,0.6,9.6,0.2c2.1-0.3,4.1-0.7,6.2-1.2c0.9-0.2,1.7-0.4,2.6-0.7c0.5,0,0.4-0.2-0.3-0.7
						c-1.8,0.5-3.6,1-5.5,1.4c2.3,1.3,4.6,2.7,6.9,4c-0.5-1.8-1-3.6-1.4-5.5c-0.7,1.2-2.5,4-1.4,0.5c0.7-2,2.3-3.3,3.3-5.1
						c1.3-2.4,1.4-5.7-0.3-8c-1.8-2.3-4.2-1.8-6.8-1.8c-2.2-0.1-4.4-0.4-6.6-0.6c-1.3-0.1-4.1-0.9-2.2,0.3c0,2.3,0,4.6,0,6.9
						c0.2-0.1,0.4-0.3,0.6-0.4c1.1-0.8,2.2-2,2-3.5c-0.3-2.4-0.6-4.9-1-7.3c-1.7,1.3-3.4,2.6-5.1,3.9c1.6,0.5,6.3,1.3,7.4,2.5
						c1.8,2.1,0.4,2-1.6,2.6c-2.7,0.9-5.7,1-8.5,1.5c1.7,1.3,3.4,2.6,5.1,3.9c0.3-2.4,0.6-4.9,1-7.3c-2,1.2-4,2.3-6,3.5
						c2.5,1.3,5,2.1,7.9,2.2c0.5,0,3-0.2,3.1,0c-0.2-0.2-4.6,2.2-4.9,2.3c2,0.8,3.9,1.6,5.9,2.4c-1-2.4-2.1-4.9-3.1-7.3
						c-0.9,1.6-1.9,3.3-2.8,4.9c2.3-0.8,4.6-1.7,6.9-2.3c1-0.3,6.1-1.7,3.2-0.5c-4.8,2-10.3,2.7-15.5,2.9c1.3,1.7,2.6,3.4,3.9,5.1
						c0.4-2.6,0.7-5.2,1.1-7.9c-1.6,0.9-3.3,1.9-4.9,2.8c3.3,0.8,6.3,0.8,9.7,0.5c1.7-0.1,3.2,0,4.7,0.2c0.5,0.1,1,1.6,0.7,0
						c-2.4,1-4.9,2.1-7.3,3.1c0.6,0.8,1.2,1.6,1.8,2.4c1.2-2,2.3-4,3.5-6c-4,0.2-8.1,2.3-12.1,0.2c-1.6-0.8-0.4-0.2,0.8-0.4
						c1.5-0.3,3.1-0.3,4.6-0.5c3.5-0.5,6.8-1.5,10.1-2.7c-1.6-0.9-3.3-1.9-4.9-2.8c0.4,2.6,0.7,5.2,1.1,7.9c1.3-1.7,2.6-3.4,3.9-5.1
						c-3.2,0.4-6,1.3-9.1,2.4c-5.3,2,1.5-0.9,2.8-1.6c-2-0.8-3.9-1.6-5.9-2.4c0.7,2.5,1.3,5,2,7.5c1.3-1.7,2.6-3.4,3.9-5.1
						c-0.8,0-11.7-0.8-11.1-2.2c0.1-0.3,4.6-0.9,5-0.9c2.2-0.4,4.4-1,6.5-1.7c-1-2.4-2.1-4.9-3.1-7.3c-0.8,0.6-1.6,1.2-2.4,1.8
						c1.8,1.8,3.6,3.6,5.5,5.5c0.1-0.3,0.3-0.5,0.4-0.8c-2.4-0.3-4.9-0.6-7.3-1c0.8,2,1.6,3.9,2.4,5.9c1.6-1.6,3.3-3.3,4.9-4.9
						c-2.4-0.8-5-1.5-7.4-2.5c-3.8-1.6,0.4-1,2-1c3.4,0.2,6.8,0.6,10.1,0.8c4,0.3,7.4,2.4,6.5,7c-0.6,3.3-3.9,5.6-4.6,8.9
						c1.6-0.9,3.3-1.9,4.9-2.8c-2.3-0.9-4.6-1.9-6.8-2.8c0.8,2,1.6,3.9,2.4,5.9c0.5-0.8,1.8-3,0.7-0.6c2.1-0.3,4.2-0.5,6.3-0.8
						c-1.8-1.8-3.6-3.6-5.5-5.5c-0.3,2.1-0.5,4.2-0.8,6.3c0.3-0.1,0.6-0.3,0.9-0.4c-2-0.8-3.9-1.6-5.9-2.4c1,2.4,2.1,4.9,3.1,7.3
						c0.9-1.6,1.9-3.3,2.8-4.9c-6,1.5-21.6,6.3-23.5-3c-0.4-2-0.1-4.1,0.3-6.1c0.1-0.8,0.8-6,1.4-6.2c0.2-0.1,5.1,2,5.6,2
						c2.5,0.5,5.1,0.4,7.6,0.4c-1.3-1.7-2.6-3.4-3.9-5.1c-0.4,2.6-0.7,5.2-1.1,7.9c1.6-0.9,3.3-1.9,4.9-2.8c-3.4-0.6-6.8-1-10.3-1
						c1.3,1.7,2.6,3.4,3.9,5.1c0.4-2.6,0.7-5.2,1.1-7.9c-1.6,0.9-3.3,1.9-4.9,2.8c4.4,1.5,8.7,2.2,13.3,2.3
						C99.7,160.6,99.7,152.6,94.5,152.6z"/>
				</g>
			</g>
		</g>
		<g>
			<g>
				<path class="st1" d="M88.9,198.4c-6.3,0.4-14.3-0.9-16.5,6.5c-1.7,5.8-1.6,13.9,3.6,17.9c3.1,2.3,6,1.8,9.7,1.7
					c3.3-0.1,6.6,0.8,9.8,0.1c5.9-1.3,10.4-7.8,10.5-13.5c0.1-4.7-6.4-5.2-7.9-1.1c-1,2.9-1.8,5.9-2.2,8.9c2.6,0.4,5.2,0.7,7.9,1.1
					c0-5.3,1.4-12.7-0.9-17.6c-2.1-4.5-6.2-4.5-10.4-3.9c-4.2,0.6-6.8,2.6-7.2,7c-0.2,1.9-0.1,4,0.8,5.8c1.2,2.4,3.4,2.6,5.2,4.2
					c0.9-2.3,1.9-4.6,2.8-6.8c-3-0.2-5.9-0.7-8.8-1.6c-0.4,2.6-0.7,5.2-1.1,7.9c3.9,0.2,9.6,1.6,12.6-1.6c1.8-1.9,1.4-4.9-0.8-6.3
					c-3.9-2.5-8.9-3.7-13.3-2.1c-3.9,1.4-5.9,5.6-3.7,9.4c2.3,3.9,6.8,3.9,10.8,3.4c1.8-0.3,3.5-0.5,4.8-1.9
					c1.9-2.3,1.1-5.4,4.6-6.5c4.9-1.4,2.8-9.2-2.1-7.7c-5.3,1.5-7.1,5-9.1,9.7c0.8-0.6,1.6-1.2,2.4-1.8c-1.8,0.5-3.6-0.3-3.7,1.7
					c-0.1,1.6,3.8,1.8,5.4,2.8c-0.3-2.1-0.5-4.2-0.8-6.3c-0.2,0.2-0.4,0.4-0.6,0.6c0.9-0.4,1.9-0.8,2.8-1.2c-3,0.4-6.2-0.1-9.2-0.2
					c-4.6-0.2-5.3,6.6-1.1,7.9c3.6,1.1,7.2,1.6,10.9,1.8c3.5,0.2,5.3-4.5,2.8-6.8c-1-0.9-2.9-1.5-3.7-2.4c-0.2-0.2,0-1.8,0.1-1.9
					c-1.1,1.3,1.4,0.5,1.7,0.7c2.2,1.5,0.9,10.7,0.9,13.7c0,4.3,7.2,5.6,7.9,1.1c0.5-3.1,1.2-6,2.2-8.9c-2.6-0.4-5.2-0.7-7.9-1.1
					c-0.1,3.6-3.3,5.7-6.4,5.8c-1.5,0-3-0.3-4.4-0.3c-1.3,0-2.9,0.5-4.2,0.3c-3.1-0.6-5.1-6.1-3-9c1.2-1.7,6.7-1.2,8.9-1.4
					C94.1,206.1,94.1,198,88.9,198.4L88.9,198.4z"/>
			</g>
			<g>
				<g>
					<path class="st1" d="M88.9,194.4c-4.9,0.2-10.4-0.3-14.8,2.2c-4.8,2.7-6.2,8.1-6.6,13.3c-0.4,5.3,0.9,11,4.7,14.9
						c4.8,4.7,10.7,3.5,16.8,3.8c6.2,0.4,11.5-0.5,15.9-5.3c3.2-3.5,6.1-9.5,4.9-14.4c-1.1-4.2-5.3-6.5-9.4-5.6
						c-6.4,1.4-7.4,9.1-8.3,14.5c-0.3,1.9,0.5,4.6,2.8,4.9c2.6,0.4,5.2,0.7,7.9,1.1c2.6,0.3,5-1,5.1-3.9c0.1-6.4,1.6-13.7-1.5-19.6
						c-2.8-5.4-8.3-6.6-13.9-5.9c-5.2,0.7-9.6,3.3-10.9,8.7c-0.7,2.9-0.6,6.4,0.6,9.2c1.4,3.1,3.7,4,6.2,6c2.5,2,5.5,1.2,6.7-1.8
						c0.9-2.3,1.9-4.6,2.8-6.8c1.1-2.6-1.6-4.9-3.9-5.1c-2.7-0.2-5.2-0.7-7.7-1.4c-1.9-0.5-4.6,0.6-4.9,2.8
						c-0.4,2.6-0.7,5.2-1.1,7.9c-0.4,2.7,1,4.9,3.9,5.1c5.8,0.4,13.5,1.6,16.8-4.6c3.4-6.4-2.5-11.3-8.1-13.1
						c-6.1-1.9-14.1-1.1-17.5,5c-3.2,5.7,0.1,12.8,6.1,14.9c5.2,1.9,13.5,1.2,16.8-3.8c0.7-1,0.8-2.3,1.5-3.3
						c0.8-1.2,1.1-0.9,2.4-1.7c2.1-1.2,3.4-3.4,3.7-5.8c0.6-5-3.3-9.5-8.4-9.1c-6.7,0.5-10.6,6.3-13.1,11.8
						c-1.4,3.1,1.9,8.2,5.5,5.5c0.8-0.6,1.6-1.2,2.4-1.8c3.6-2.7,1.6-8.2-3.1-7.3c-3.5,0.6-7,1.6-6.6,6.1c0.4,4.1,4.4,4.3,7.4,5.7
						c2.4,1.2,6.4-0.2,6-3.5c-0.3-2.1-0.5-4.2-0.8-6.3c-0.4-3.2-4.2-5.6-6.8-2.8c-0.2,0.2-0.4,0.4-0.6,0.6c-2.5,2.6,0,8.3,3.9,6.7
						c0.9-0.4,1.9-0.8,2.8-1.2c3.8-1.6,3.9-8.2-1.1-7.9c-5.8,0.4-14-2.3-16.6,4.9c-1.6,4.5,0.9,9.1,5.2,10.6
						c5.2,1.8,14.4,4.1,18.3-1.2c1.4-1.9,2-4.6,1.4-6.9c-0.3-1.3-1.1-2.6-2.1-3.6c-0.6-0.4-1.1-0.9-1.7-1.3c-1.2-1-1.5-0.7-0.9,0.9
						c0.8-4.2-5.1-7.4-7.3-3.1c-0.1,0.2-0.2,0.4-0.3,0.6c-1,2-0.5,4.2,1.4,5.5c1.3,0.9,2.5,0.6,4,0.7c-0.9-0.4-1.9-0.8-2.8-1.2
						c1.2,1.2-0.1,7.5-0.2,9.4c0,3.4,0.8,6.4,3.9,8.2c2.7,1.6,6.4,1.6,8.9-0.3c3.8-2.8,3.6-9.2,5-13.3c0.6-1.9-0.7-4.6-2.8-4.9
						c-2.6-0.4-5.2-0.7-7.9-1.1c-1.9-0.3-4.6,0.4-4.9,2.8c-0.5,3.6-3.5,2.7-6.3,2.6c-0.5,0-6.9,0.2-4.4-2c0.8-0.7,4.3,0,5.4-0.1
						c1.8-0.2,3.5-0.7,4.9-1.8C99.7,203.7,96.2,194.7,88.9,194.4c-5.1-0.2-5.1,7.8,0,8c-0.2,0-3,0-4.2,0.1c-2,0.1-4.4,0.2-6.2,1.4
						c-4.2,2.7-4,9-1.6,12.9c3.2,5.2,8.8,4,14,4.1c5.4,0.1,10.3-3.2,11-8.7c-1.6,0.9-3.3,1.9-4.9,2.8c2.6,0.4,5.2,0.7,7.9,1.1
						c-0.9-1.6-1.9-3.3-2.8-4.9c-0.8,2.3-1.7,4.7-1.9,7.1c-0.1,1.3-0.2,2.7-0.3,1.1c-0.1-2.6,0.4-5.2,0.3-7.9
						c-0.1-2.2-0.2-4.8-1.4-6.8c-0.7-1-1.6-1.9-2.8-2.2c-1.2-0.3-2.6-0.8-1,0.3c0.5,1.8,1,3.6,1.4,5.5c0.1-0.2,0.2-0.4,0.3-0.6
						c-2.4-1-4.9-2.1-7.3-3.1c-0.3,1.6-0.5,3.5,0.3,5c1,1.7,3.4,1.8,4.3,3.2c0.2,0.3-9.6-1.8-9.8-1.8c1.4-0.6,6.9,0.5,9.1,0.3
						c-0.4-2.6-0.7-5.2-1.1-7.9c-0.9,0.4-1.9,0.8-2.8,1.2c1.3,2.2,2.6,4.5,3.9,6.7c0.2-0.2,0.4-0.4,0.6-0.6
						c-2.3-0.9-4.6-1.9-6.8-2.8c0.3,2.1,0.5,4.2,0.8,6.3c2-1.2,4-2.3,6-3.5c-0.7-0.4-1.5-0.8-2.3-1c-2.6-0.5-0.2-1-1,1.8
						c-0.6,0.8-1.2,1.6-1.8,2.4c0.4-0.3,2.1-0.3,2.5-0.4c-1-2.4-2.1-4.9-3.1-7.3c-0.8,0.6-1.6,1.2-2.4,1.8c1.8,1.8,3.6,3.6,5.5,5.5
						c0.8-1.9,1.7-4.1,3.1-5.7c1-1.1,3.1-1.7,3.6-2.2c-1.2,1.3-3.1,1.4-4.3,3c-0.9,1.2-1.1,3.5-2.1,4.5c-1.4,1.4-5.7,1.5-7.5,0.8
						c-4.1-1.7-0.9-5.1,2.1-5.3c1.5-0.1,9.2,1.3,5.4,3c-1.7,0.8-5.7-0.3-7.5-0.4c1.3,1.7,2.6,3.4,3.9,5.1c0.4-2.6,0.7-5.2,1.1-7.9
						c-1.6,0.9-3.3,1.9-4.9,2.8c3.3,0.9,6.5,1.4,9.9,1.7c-1.3-1.7-2.6-3.4-3.9-5.1c-0.9,2.3-1.9,4.6-2.8,6.8
						c2.2-0.6,4.5-1.2,6.7-1.8c-2.7-2.1-6.4-3.8-4.6-8c1-2.3,4.4-2.8,6.7-2.5c6.4,0.9,3.7,13.3,3.7,17.8c1.7-1.3,3.4-2.6,5.1-3.9
						c-2.6-0.4-5.2-0.7-7.9-1.1c0.9,1.6,1.9,3.3,2.8,4.9c0.1-0.9,2.5-8.7,2.5-8.8c0.5,0.8-2,5.3-3,6.5c-2.4,2.7-5.1,3.2-8.6,3.1
						c-3-0.1-6.3,0.2-9.3-0.1c-6.3-0.8-7.1-9.8-5-14.7c1.9-4.6,8.5-3.4,12.6-3.6C94.1,202.1,94.1,194.1,88.9,194.4z"/>
				</g>
			</g>
		</g>
		<g>
			<g>
				<path class="st1" d="M141.9,154.9c-3.9-0.5-5.7,2.9-6.1,6.2c-0.4,3.6-1.9,9.3,0.9,12.3c1.4,1.5,3.1,1.8,5,2
					c2.3,0.3,4.3,1.4,6.6,1.8c4.5,0.8,9.3-1.3,13.5-2.6c1.8-0.5,2.9-2.1,2.9-3.9c0.2-4,1.6-13-2.5-15.5c-2.1-1.3-5.2-0.8-7.5-0.9
					c-2.7-0.1-6.3-0.8-8.9,0.1c-4.1,1.5-4.5,7.2-2.9,10.7c2.3,5.1,9.9,3.4,14.3,3.4c5.1,0,5.2-8,0-8c-2,0-5-0.6-6.8,0
					c-2.2-0.4-2.3,0.1-0.2,1.3c-0.2-0.8-0.1-1.6,0.2-2.4c-0.6,0.8-1.2,1.6-1.8,2.4c-0.8,0.3-0.4,0.4,1.3,0.2c1.1,0,2.2,0.1,3.2,0.1
					c1.9,0.1,4.2-0.2,6.1,0.3c-0.9-0.9-1.9-1.9-2.8-2.8c1.2,3.1,0.5,7.8,0.4,11c1-1.3,2-2.6,2.9-3.9c-2.8,0.8-6.9,2.8-9.9,2.5
					c-1.3-0.1-2.6-0.9-3.8-1.3c-1.6-0.5-3.4-0.4-5-1c0.8,0.6,1.6,1.2,2.4,1.8c-0.8-1.2,0.4-7.4,0.9-8.6c-0.6,0.8-1.2,1.6-1.8,2.4
					c-0.1,0-0.3,0.1-0.4,0.1C147,163.5,146.9,155.5,141.9,154.9L141.9,154.9z"/>
			</g>
			<g>
				<g>
					<path class="st1" d="M141.9,149.4c-8.3-0.2-11,6.7-11.9,13.7c-1,7.8,0.3,15.5,9,17.5c4.2,1,8.4,2.6,12.8,2.2
						c4.2-0.3,9.2-1.6,13-3.5c6.2-3.2,6.1-11.4,5.6-17.6c-0.5-7.2-4.1-12.2-11.6-12.8c-7.4-0.6-17.1-2.1-21.1,5.9
						c-2.7,5.4-1.4,13.6,3.8,17.1c4.6,3.1,13.9,3.5,19,1.5c5.8-2.2,7.6-9.8,4-14.7c-2.2-3-5.2-3.5-8.7-3.7
						c-3.1-0.2-7.7-0.9-10.2,1.4c-1.4,1.2-1.4,3.3-0.6,4.8c0.9,1.8,2.9,2.7,4.6,3.7c2,1.1,5.5,0.3,5.9-2.4c0.1-0.5,0.2-1,0.2-1.6
						c0.7-4.6-4.5-6.7-7.3-3.1c-0.8,1.1-1.7,2.2-2.5,3.3c0.8-0.6,1.6-1.2,2.4-1.8c-0.7,0.2-1.5,0.4-2,0.8c-3.4,2.4-2,6.9,2,7.5
						c3.1,0.4,6.3-0.2,9.4,0.3c3.7,0.6,6.9-3.6,3.9-6.7c-1.3-1.3-2.6-2.6-3.8-3.8c-2.8-2.8-7.8,0-6.7,3.9c0.9,3.1,0.4,6.4,0.2,9.5
						c-0.3,4.4,5.3,4.8,7.5,2c1.3-1.8,2.7-3.5,4-5.3c2.1-2.8-1.4-6.9-4.5-5.9c-2.3,0.8-5,2.3-7.4,2.2c-2.5-0.1-5.9-1.4-8.4-2
						c-4.7-1.2-6.5,4.7-3.1,7.3c1.1,0.8,2.2,1.7,3.3,2.5c3,2.3,6.5-1.5,5.9-4.5c-0.2-1.2,0.6-4.1,1-5.3c1.5-4.7-4.8-6.4-7.3-3.1
						c-0.8,1.1-1.7,2.2-2.5,3.3c0.8-0.6,1.6-1.2,2.4-1.8c-0.4,0.1-0.8,0.2-1.1,0.3c-4.3,1.2-3.5,8,1.1,7.9
						c11.7-0.4,12.3-16.6,1.1-18.9c-5-1-7.2,6.7-2.1,7.7c0.8,0.2,5,3,1.1,3.1c0.4,2.6,0.7,5.2,1.1,7.9c3.1-0.8,4.2-3,6.1-5.4
						c-2.4-1-4.9-2.1-7.3-3.1c-0.9,2.9-1.7,6.6-1,9.6c2-1.5,3.9-3,5.9-4.5c-1.1-0.8-2.2-1.7-3.3-2.5c-1,2.4-2.1,4.9-3.1,7.3
						c3.3,0.8,7.2,2.4,10.5,2.4c3.3,0,6.5-1.6,9.6-2.6c-1.5-2-3-3.9-4.5-5.9c-1.3,1.8-2.7,3.5-4,5.3c2.5,0.7,5,1.3,7.5,2
						c0.2-3.9,0.6-7.8-0.5-11.7c-2.2,1.3-4.5,2.6-6.7,3.9c1.3,1.3,2.6,2.6,3.8,3.8c1.3-2.2,2.6-4.5,3.9-6.7
						c-3.8-0.6-7.7-0.1-11.6-0.6c0.7,2.5,1.3,5,2,7.5c2.1-1.5,3.3-2.9,5-5.1c-2.4-1-4.9-2.1-7.3-3.1c-0.1,0.5-0.2,1-0.2,1.6
						c2-0.8,3.9-1.6,5.9-2.4c-0.5-0.5-1-0.8-1.7-0.8c-0.2,1.6-0.4,3.2-0.6,4.8c0.1-0.1,0.1-0.1,0.2-0.2c-0.9,0.4-1.9,0.8-2.8,1.2
						c1.9-0.2,9-1.2,9.7,0.9c1,3.1-5.5,2.3-7,2.3c-4.2,0-8-1.7-6.7-6.7c1.2-4.8,9.7-3,13.5-2.7c5.1,0.5,4.5,5.6,4.3,9.7
						c-0.1,1.9,0.2,4.3-1.4,5.6c-1.4,1.2-6,1.9-7.9,2.3c-3.4,0.7-5.9-0.3-9.1-1.1c-2.9-0.8-5.8-0.5-6.5-4.1c-0.7-3.2,0-12.1,4.3-12
						C147,157.5,147,149.5,141.9,149.4z"/>
				</g>
			</g>
		</g>
		<g>
			<g>
				<path class="st1" d="M207,153.9c-2.2,0.3-5.5,0.1-7.5,1.4c-2.2,1.4-2.5,4.2-2.8,6.6c-0.5,4.9-0.1,10.1,4.4,12.9
					c0.7-2.5,1.3-5,2-7.5c-0.4,0-0.8,0.1-1.2,0.1c-5,0.5-5.2,8.3,0,8c3.2-0.2,6.6,0.6,9.7,1.3c1.5,0.3,2.9,0.2,4.3-0.2
					c1.7-0.5,3.3-0.4,4.9-0.7c6.6-1.5,6.7-13.6,4.6-18.4c-1.4-3.1-4.2-3.3-7.3-3c-3.4,0.3-6-0.5-9.1,1.5c-2.3,1.5-4.8,4.3-3.9,7.3
					c0.4,1.4,1.5,2.4,2.8,2.9c0.8,0.3,1.6,0.4,2.4,0.5c0.5,0.1,0.9,0.1,1.4,0.2c1.1,0.3,1.2,0,0.3-0.9c0.4,5.1,8.4,5.1,8,0
					c-0.2-2.2-0.8-3.9-2.6-5.3c-0.8-0.6-1.7-1.1-2.7-1.4c-1-0.3-2.9,0.1-3.6-0.4c0.7,1.2,1.3,2.3,2,3.5c0,0.2,1.4,0.4,2.3,0.5
					c1.6,0.2,3.8-0.8,5.3-0.3c-0.8-0.6-1.6-1.2-2.4-1.8c1.1,2.7-0.4,5.7-0.3,8.4c1.2-0.8,1.3-1.1,0.4-1c-0.5-0.1-1.1,0-1.6,0.1
					c-0.9,0.1-1.8,0.7-2.8,0.8c-1.7,0.1-3.5-1.2-5.4-1.2c-2.1-0.1-4.4-0.2-6.5-0.1c0,2.7,0,5.3,0,8c0.4,0,0.8-0.1,1.2-0.1
					c3.9-0.4,5.5-5.2,2-7.5c-1.2-0.8-0.6-6.1-0.2-7.1c-0.8,0.6-1.6,1.2-2.4,1.8c1.4-0.5,2.9-0.6,4.4-0.7
					C212.1,161.3,212.1,153.3,207,153.9L207,153.9z"/>
			</g>
			<g>
				<g>
					<path class="st1" d="M207,148.4c-8.2,0.8-14.2,2.6-15.5,11.7c-1.1,7.7,0.4,14.7,6.9,19.5c2.1,1.6,5.3-0.1,5.9-2.4
						c0.9-3.4,1.9-6.8,2.8-10.2c0.6-2.3-1.2-5.3-3.9-5.1c-6.3,0.7-11.8,5.3-10.2,12.3c1.6,6.7,10.5,8.6,16.4,7
						c1.6-0.4,3.1-2.1,2.9-3.9c0,0,0-0.1,0-0.1c-1.3,1.3-2.7,2.7-4,4c0.7,0,4.4,1.3,6.5,1.1c2.6-0.2,5.7-0.6,8.2-1.4
						c3.8-1.1,6.4-4.3,7.8-7.8c2.7-6.7,2.7-18.8-4.5-22.9c-3.9-2.2-9.6-1.5-13.8-1.1c-5,0.5-9.7,3.8-11.8,8.5
						c-1.9,4.3-0.8,9.1,2.8,12c2.9,2.3,8.9,3.9,11.9,1.2c1-0.8,1.5-2.7,1-3.9c-0.7-1.7-1.6-2.7-3-4c-3.1-2.9-7.3,0-6.7,3.9
						c1.2,7.6,11.6,11.3,16.8,5.2c2.9-3.4,2.5-8.7,0.4-12.4c-2.6-4.5-6.4-5.2-10.9-6.1c-3.3-0.7-6.3,2.7-4.5,5.9
						c-0.1-0.2,2.1,3.7,2.3,3.2c0.9-0.9,1.9-1.9,2.8-2.8c0.2,0,0.4,0,0.6,0c-5-1.1-7.1,6.3-2.1,7.7c3,0.8,5.3-0.1,8.3,0.2
						c4.4,0.4,4.7-5.4,2-7.5c-1.1-0.8-2.2-1.7-3.3-2.5c-3.1-2.3-6.4,1.5-5.9,4.5c0.4,2.1-0.6,4.1-0.6,6.2c-0.1,3.1,3.4,4.9,6,3.5
						c1.2-0.7,2.5-1.4,3.5-2.4c1.1-1.3,1.6-3.3,0.6-4.8c-1.8-2.7-4.5-2.4-7.4-2c-4,0.6-8.9-0.9-13.2-0.8c-2.2,0-4,1.8-4,4
						c0,3.7,0,7.3,0,11c0,2,1.8,4.2,4,4c4.3-0.4,8.1-2,9.8-6.3c1.6-4,0.3-8.3-3.1-10.9c0.3,1.3,0.7,2.6,1,3.9c0.6-1.6,0-3.4,0.4-5.1
						c0.6-3-2.9-6.8-5.9-4.5c-1.1,0.8-2.2,1.7-3.3,2.5c-3.4,2.6-1.6,8.5,3.1,7.3c5.4-1.4,11.3-1.9,12.3-8.7
						C217.2,153.4,212.7,148.6,207,148.4c-5.1-0.2-5.1,7.8,0,8c4.6,0.2-1,3.1-1.3,3.2c-1.2,0.3-2.5,0.4-3.7,0.7
						c1,2.4,2.1,4.9,3.1,7.3c1.1-0.8,2.2-1.7,3.3-2.5c-2-1.5-3.9-3-5.9-4.5c-0.3,1.3-0.2,4.5-0.4,5.1c-0.4,1.2,0,3.1,1,3.9
						c2,1.6,1.5,3.3-1.1,3.5c1.3,1.3,2.7,2.7,4,4c0-3.7,0-7.3,0-11c-1.3,1.3-2.7,2.7-4,4c3.6-0.1,6.6,0.6,10.1,1.1
						c2.5,0.4,4.4-0.8,6.8-0.6c-1.2-0.7-2.3-1.3-3.5-2c0.1,0.1,0.1,0.2,0.2,0.2c0.2-1.6,0.4-3.2,0.6-4.8c-0.5,0.5-1.1,0.9-1.8,1.2
						c2,1.2,4,2.3,6,3.5c0.1-2.9,0.9-5.3,0.3-8.3c-2,1.5-3.9,3-5.9,4.5c1.1,0.8,2.2,1.7,3.3,2.5c0.7-2.5,1.3-5,2-7.5
						c-2.1-0.2-4.1,0.6-6.1,0.1c-0.7,2.6-1.4,5.1-2.1,7.7c2.7,0.6,5.4,0.1,6.4-2.8c1.2-3.4-1.4-6.6-3.1-9.4c-1.5,2-3,3.9-4.5,5.9
						c1,0.2,2.6-0.1,3.5,0.3c1.3,0.5,4.6,3.5,3.2,5.1c-1.4,1.6-2.9-0.6-3.1-1.9c-2.2,1.3-4.5,2.6-6.7,3.9c1,1.3,1.3,1.4,0.9,0.4
						c0.3-1.3,0.7-2.6,1-3.9c-0.1,0.1-0.2,0.1-0.2,0.2c0.9-0.4,1.9-0.8,2.8-1.2c-3.4-0.2-6-1.8-3.1-5.1c1.9-2.2,4.6-2,7.3-2.1
						c2.5-0.1,5.3-1,6.9,1.5c0.8,1.2,0.9,3.5,1,4.9c0.1,2.9-0.1,7.6-2.7,9.4c-1.7,1.2-5.6,1.4-7.7,1.4c-2,0-3.6-0.9-5.6-1
						c-2-0.1-4.2,1.9-4,4c0,0,0,0.1,0,0.1c1-1.3,2-2.6,2.9-3.9c-0.6,0.1-6.1-0.3-6.4-0.8c-1-1.6,1.1-2.7,2.3-2.8
						c-1.3-1.7-2.6-3.4-3.9-5.1c-0.9,3.4-1.9,6.8-2.8,10.2c2-0.8,3.9-1.6,5.9-2.4c-3.2-2.4-3.5-6.4-3.2-10.1
						c0.1-1.5,0.2-3.7,1.4-4.9c1.4-1.4,4.6-1.1,6.4-1.3C212.1,155.9,212.2,147.9,207,148.4z"/>
				</g>
			</g>
		</g>
		<g>
			<g>
				<path class="st1" d="M216.9,200.9c-2.9,0.1-5.8,0.1-8.7-0.1c-2.4-0.1-5.2-0.8-7.5,0.3c-4,1.9-4.1,6.8-4.1,10.6
					c0,4.5-0.1,9.3,4.6,11.5c4.5,2.1,9.7-0.5,14.4,0.1c4.1,0.5,8.5,1.2,10.4-3.5c0.8-2,0.3-4.2,0.4-6.3c0.1-2.5,0.6-4.8-0.1-7.2
					c-1.1-3.6-4.3-6.2-8.1-5.7c-1.9,0.3-3.5,1.2-4.8,2.6c-1.6,1.7-2.4,5.4-5.1,5.5c-5.1,0.1-5.2,8,0,8c0.4,0,0.8,0,1.2,0
					c5.1,0,5.2-8,0-8c-0.4,0-0.8,0-1.2,0c0,2.7,0,5.3,0,8c4.5-0.1,7.7-2.3,9.8-6.2c0.3-0.5,1.3-1.3,0.6-1.6c0.3,0.1-0.2,3.3-0.2,3.8
					c0,0.4,0.3,3.3,0,3.6c0.9-0.8-2-0.8-2.3-0.9c-2.4-0.3-4.7-0.4-7.2,0c-1.4,0.2-2.5,1-3.7,0.1c-1.1-0.9-0.7-2.3-0.7-3.6
					c0,0.3-0.1-3.7-0.4-3.2c0.2-0.3,3.6,0.3,3.9,0.3c2.9,0.2,5.8,0.2,8.7,0.1C222.1,208.7,222.1,200.7,216.9,200.9L216.9,200.9z"/>
			</g>
			<g>
				<g>
					<path class="st1" d="M216.9,195.4c-7.6,0.1-18.3-2.8-23.2,4.8c-3.4,5.2-3.4,14.1-1.7,19.9c2.5,8.2,10.2,9.8,17.8,8.9
						c6.8-0.8,15.2,2.1,19.9-4.6c2.6-3.7,2.1-7.6,2.3-11.9c0.2-4,0.3-7.7-1.9-11.3c-3.9-6.5-12.4-8.2-18.6-3.8
						c-1.4,1-2.4,2.2-3.3,3.6c-0.4,0.6-0.6,1.3-1.1,1.9c-1.2,1.4,1.2-0.5-0.3,0.3c-2.7,1.5-4.9,1.5-6.6,4.6
						c-2.5,4.6-1,10.8,3.8,13.2c5.7,2.9,13.1,0.1,14.6-6.2c1.6-6.9-3.7-11.8-10.2-11.8c-2.2,0-4,1.8-4,4c0,3.7,0,7.3,0,11
						c0,2.1,1.8,4.1,4,4c7.6-0.5,11.8-4.1,15.4-10.4c1.1-2,0.3-5.5-2.4-5.9c-1-0.1-2-0.3-3-0.4c-2.1-0.3-4.3,0.5-4.9,2.8
						c-0.8,2.9-1.1,7.3,0.1,10.1c0.9,2,3.8,2.4,5.5,1.4c1.5-0.9,2.8-1.7,3.8-3.1c1-1.5,0.5-3.6-0.6-4.8c-2.2-2.4-7.9-2.2-10.7-2
						c-2.9,0.1-7.4,0.1-9,3c-1.7,3,1.1,6.8,4.5,5.9c0.1,0,0.1,0,0.2-0.1c1.2-0.3,2.6-1.5,2.8-2.8c0.3-2.3,0.2-4.6,0.2-6.8
						c0-1.3-0.7-2.8-2-3.5c-2.8-1.4-4.8-0.2-6.8,1.9c-1.9,2-1.3,6.2,1.8,6.7c6.6,1,17.6,2.8,21.6-3.9
						C228.7,203.4,224.2,195.8,216.9,195.4c-5.1-0.3-5.1,7.7,0,8c1,0.1,1.4,0.6,1.3,1.7c-0.3,1.6-1.6,1.3-3,1.4
						c-3.1,0.1-7.1,0.1-9.9-0.3c0.6,2.2,1.2,4.5,1.8,6.7c0.3-0.3,0.5-0.5,0.8-0.8c-1.3,0-2.7,0-4,0c0.1,0.1,0.2,0.1,0.3,0.2
						c-0.7-1.2-1.3-2.3-2-3.5c0,1.5,0.3,3.3,0.1,4.7c0.9-0.9,1.9-1.9,2.8-2.8c-0.1,0-0.1,0-0.2,0.1c1.5,2,3,3.9,4.5,5.9
						c0.1-0.1,0.1-0.2,0.2-0.3c-0.8,0.6-1.6,1.2-2.4,1.8c1.7-0.5,3.5-0.6,5.3-0.6c1.3,0,2.5,0.1,3.8,0.3c1.4,0.4,1.5,0.2,0.4-0.5
						c-0.2-1.6-0.4-3.2-0.6-4.8c0.7-0.8,0.4-0.7-0.9,0.3c1.8,0.5,3.6,1,5.5,1.4c0.8,1.8,0.5-0.6,0.5-1.3c0.1-0.9,0-1.8,0.2-2.6
						c-1.6,0.9-3.3,1.9-4.9,2.8c1,0.1,2,0.3,3,0.4c-0.8-2-1.6-3.9-2.4-5.9c-2.2,3.8-3.8,6.2-8.5,6.5c1.3,1.3,2.7,2.7,4,4
						c0-3.7,0-7.3,0-11c-1.3,1.3-2.7,2.7-4,4c3.6,0,2.8,3.9,0,3c-0.9-0.3-1.5-0.6-1.3-1.7c0.3-1.6,1.4-1.1,2.7-1.5
						c3.7-1.3,3.9-5.6,7.2-7.3c7.6-3.9,7.2,7.6,7,11.6c-0.1,2.7,0,5.2-3.1,5.9c-2,0.5-4.3-0.2-6.3-0.3c-4.6-0.2-12.6,3.1-14.9-2.7
						c-1.2-3-1.4-9.9,0.3-12.7c2.3-4.1,12.8-1.8,16.9-1.9C222.1,203.3,222.1,195.3,216.9,195.4z"/>
				</g>
			</g>
		</g>
		<g>
			<g>
				<path class="st1" d="M155.3,200.6c-3.4,0.3-6.7,0-10-0.7c-2.1-0.4-4.4-1.1-6.5-0.2c-3.7,1.6-4.5,7.5-4.6,10.9
					c-0.2,4.6,1.3,9.4,5.6,11.7c4.2,2.3,10.1,1,14.6,0.4c3.3-0.5,9.1-2,10.9-5.2c1.8-3.1,0.6-10.7-1.3-13.6c-2.3-3.5-6.5-3.8-10.3-3
					c-1.7,0.4-3.5,1.1-4.8,2.4c-2.1,2.1-1.5,5.5-5.2,5.8c-5.3,0.3-5,7.3,0,8c2.1,0.3,12.6-1.3,12.7,2c2.5-0.7,5-1.3,7.5-2
					c0-0.1,0-0.2,0-0.3c0.4-5.1-7.6-5.1-8,0c-0.1,1.8,0.2,2.8,1.1,4.4c1.9,3.4,7.6,2,7.5-2c-0.2-4-2.2-7.2-5.9-8.9
					c-4.7-2.2-9.9-0.5-14.8-1.1c0,2.7,0,5.3,0,8c4-0.2,8.4-1.2,10.2-5.2c0.6-1.3,0.3-3.8,2.4-3.3c1.7,0.4,1.6,5.2,1.4,6.9
					c0.4-0.9,0.8-1.9,1.2-2.8c-3,2.4-7.7,2.4-11.3,2.7c-2.9,0.2-4.9,0.6-5.5-3.1c-0.2-1.3-0.1-5.1,1-6.2c-0.9,0.4-1.9,0.8-2.8,1.2
					c5-0.2,9.8,1.7,15,1.2C160.4,208.1,160.5,200.1,155.3,200.6L155.3,200.6z"/>
			</g>
			<g>
				<g>
					<path class="st1" d="M155.3,195.1c-6.9,0.4-15.5-3.8-21.4,1.3c-4.6,4-5.7,11.3-5.1,17c0.6,6.7,4.6,12.9,11.2,15
						c6.4,1.9,15.3,0.5,21.5-1.8c6.2-2.3,10-6.5,10.1-13.2c0.1-6-1.7-13.2-7.2-16.4c-5.5-3.2-14-2.2-18.8,2.1
						c-1,0.9-1.7,1.9-2.4,3.1c-1.2,2.2-0.1,1.1-1.7,1.8c-2.4,1-4.5,1.9-5.9,4.3c-2.7,4.7-0.6,10.9,4.1,13.3c2.2,1.2,4.6,1.1,7,1.1
						c1.3,0,2.6,0,3.9,0c0.3,0,1.4,0.2,1.9,0.1c1.2-0.4,1.2,1.2-0.4-0.7c0.9,1.1,2.6,1.4,3.9,1c3.4-0.9,6.8-1.9,10.2-2.8
						c-1.5-0.6-3-1.2-4.5-1.8c0.1,0.1,0.1,0.3,0.2,0.4c1.9,3.6,7.5,1.8,7.5-2c0-7.4-7.9-11.7-14.3-7.9c-7,4.1-5.8,15.9,1.6,18.9
						c8.3,3.3,14.7-4.5,12.7-12.4c-1.1-4.2-3.9-7.7-7.7-9.7c-5.7-3-11.9-1.6-18.1-2.1c-2.2-0.2-4,2-4,4c0,3.7,0,7.3,0,11
						c0,2,1.8,4.2,4,4c8.1-0.7,13.7-3.7,16.2-11.6c1.4-4.4-5-6.8-7.3-3.1c0,0,0.1,0,0.1-0.1c2.1,1.6,4.2,3.2,6.3,4.8
						c-0.2,0.2-0.4,0.4-0.6,0.6c-1.6-0.2-3.2-0.4-4.8-0.6c0.1,0.1,0.1,0.2,0.2,0.3c1,1.1,2.6,1.3,3.9,1c0.2,0,0.3-0.1,0.5-0.1
						c2.4-0.4,3.9-3.9,2.4-5.9c-0.8-1-1.5-1.6-2.6-2.3c-2.5-1.4-6.3,0.3-6,3.5c0.2,2.1,0.3,4.2,0.4,6.3c0.1,4.8,6.2,5.1,7.9,1.1
						c0.5-1.3,1.1-2.6,1.6-3.9c1.3-3.3-3.1-6.3-5.9-4.5c-2.2,1.4-4.5,1.4-7,1.6c-0.8,0.1-1.7,0.3-2.5,0.2c2.6,0.2,0.4,1.1,1.3-0.8
						c1.3-2.7-0.9-7.4-4.5-5.9c-1.3,0.5-2.6,1.1-3.9,1.6c-3.9,1.6-3.8,7.8,1.1,7.9c7.6,0.1,19.4,4.8,23.4-4.7
						C166.4,201.7,162.3,195,155.3,195.1c-5.1,0.1-5.2,8.1,0,8c2.6,0,0.7,2.7-0.9,3c-4.2,0.9-9.7-1.2-14.1-1.3
						c0.4,2.6,0.7,5.2,1.1,7.9c1.3-0.5,2.6-1.1,3.9-1.6c-1.5-2-3-3.9-4.5-5.9c-1.8,3.8-2.1,10.3,2.5,12.4c2.3,1,5.3,0.3,7.7,0.1
						c3.2-0.3,6.3-0.8,9-2.6c-2-1.5-3.9-3-5.9-4.5c-0.5,1.3-1.1,2.6-1.6,3.9c2.6,0.4,5.2,0.7,7.9,1.1c-0.1-2.1-0.2-4.2-0.4-6.3
						c-2,1.2-4,2.3-6,3.5c-0.1-0.2-0.2-0.4-0.3-0.6c0.8-2,1.6-3.9,2.4-5.9c-0.2,0-0.3,0.1-0.5,0.1c1.3,0.3,2.6,0.7,3.9,1
						c-0.1-0.1-0.1-0.2-0.2-0.3c-1.1-1.3-3.4-1.5-4.8-0.6c-0.9,0.6-1.7,1.3-2.2,2.3c-2.4,4.2,2.9,7.5,6.3,4.8
						c0.5-0.4,0.8-1.1,1.1-1.5c-2.4-1-4.9-2.1-7.3-3.1c-1.4,4.4-4.2,5.4-8.5,5.7c1.3,1.3,2.7,2.7,4,4c0-3.7,0-7.3,0-11
						c-1.3,1.3-2.7,2.7-4,4c4.1,0.4,8.7-0.7,12.7,0.5c1.8,0.6,7.7,5,5.4,7.9c-1.9,2.3-4.5-2.1-3-3.9c1-1.1,2.7-0.8,2.7,0.7
						c2.5-0.7,5-1.3,7.5-2c-0.1-0.1-0.1-0.3-0.2-0.4c-0.8-1.6-2.9-2.3-4.5-1.8c-3.4,0.9-6.8,1.9-10.2,2.8c1.3,0.3,2.6,0.7,3.9,1
						c-2.1-2.5-16.3-0.4-15.4-3.8c0.4-1.3,2.8-1.1,3.8-1.5c1.8-0.8,2.7-2.2,3.5-3.9c2.9-5.5,11.2-5.6,13.1,0.7
						c0.6,2.1,1.3,5.3,0.6,7.4c-0.8,2.5-3.6,3.5-5.9,4.2c-5,1.5-13.6,3.5-17.9-0.3c-3.6-3.2-3.6-10.3-1.8-14.5
						c1.6-3.9,5.1-2.6,8.5-2.1c3,0.5,6,0.7,9.1,0.5C160.5,202.8,160.5,194.8,155.3,195.1z"/>
				</g>
			</g>
		</g>
	</g>
</g>
<path id="palette" class="st0" d="M234.3,131H65.7c-16.9,0-23,13.8-23,23v92c0,16.9,13.8,23,23,23h168.7c16.9,0,23-13.8,23-23v-92
	C257.3,137.1,243.6,131,234.3,131z M234.3,261.3c-15.3,0-168.7,0-168.7,0s-15.3,0-15.3-15.3h199.3
	C249.7,246,249.7,261.3,234.3,261.3z M249.7,238.3H50.3c0-24.5,0-84.3,0-84.3s0-15.3,15.3-15.3h168.7c0,0,15.3,0,15.3,15.3V238.3z
	 M96.3,154c0,0,7.7,0,7.7,7.7v7.7c0,0,0,7.7-7.7,7.7H81c0,0-7.7,0-7.7-7.7c0-7.7,0-7.7,0-7.7s0-7.7,7.7-7.7H96.3 M96.3,146.3H81
	c-10,0-15.3,7.9-15.3,15.3v7.7c0,10,7.9,15.3,15.3,15.3h15.3c10,0,15.3-7.9,15.3-15.3v-7.7C111.7,151.7,103.8,146.3,96.3,146.3
	L96.3,146.3z M157.7,154c0,0,7.7,0,7.7,7.7v7.7c0,0,0,7.7-7.7,7.7h-15.3c0,0-7.7,0-7.7-7.7c0-7.7,0-7.7,0-7.7s0-7.7,7.7-7.7H157.7
	 M157.7,146.3h-15.3c-10,0-15.3,7.9-15.3,15.3v7.7c0,10,7.9,15.3,15.3,15.3h15.3c10,0,15.3-7.9,15.3-15.3v-7.7
	C173,151.7,165.1,146.3,157.7,146.3L157.7,146.3z M219,154c0,0,7.7,0,7.7,7.7v7.7c0,0,0,7.7-7.7,7.7h-15.3c0,0-7.7,0-7.7-7.7
	c0-7.7,0-7.7,0-7.7s0-7.7,7.7-7.7H219 M219,146.3h-15.3c-10,0-15.3,7.9-15.3,15.3v7.7c0,10,7.9,15.3,15.3,15.3H219
	c10,0,15.3-7.9,15.3-15.3v-7.7C234.3,151.7,226.4,146.3,219,146.3L219,146.3z M96.3,200c0,0,7.7,0,7.7,7.7v7.7c0,0,0,7.7-7.7,7.7H81
	c0,0-7.7,0-7.7-7.7c0-7.7,0-7.7,0-7.7s0-7.7,7.7-7.7H96.3 M96.3,192.3H81c-10,0-15.3,7.9-15.3,15.3v7.7c0,10,7.9,15.3,15.3,15.3
	h15.3c10,0,15.3-7.9,15.3-15.3v-7.7C111.7,197.7,103.8,192.3,96.3,192.3L96.3,192.3z M157.7,200c0,0,7.7,0,7.7,7.7v7.7
	c0,0,0,7.7-7.7,7.7h-15.3c0,0-7.7,0-7.7-7.7c0-7.7,0-7.7,0-7.7s0-7.7,7.7-7.7H157.7 M157.7,192.3h-15.3c-10,0-15.3,7.9-15.3,15.3
	v7.7c0,10,7.9,15.3,15.3,15.3h15.3c10,0,15.3-7.9,15.3-15.3v-7.7C173,197.7,165.1,192.3,157.7,192.3L157.7,192.3z M219,200
	c0,0,7.7,0,7.7,7.7v7.7c0,0,0,7.7-7.7,7.7h-15.3c0,0-7.7,0-7.7-7.7c0-7.7,0-7.7,0-7.7s0-7.7,7.7-7.7H219 M219,192.3h-15.3
	c-10,0-15.3,7.9-15.3,15.3v7.7c0,10,7.9,15.3,15.3,15.3H219c10,0,15.3-7.9,15.3-15.3v-7.7C234.3,197.7,226.4,192.3,219,192.3
	L219,192.3z"/>
</svg>
