<?xml version="1.0" encoding="utf-8"?>
<!-- Generator: Adobe Illustrator 23.0.1, SVG Export Plug-In . SVG Version: 6.00 Build 0)  -->
<svg version="1.1" id="icon2" xmlns="http://www.w3.org/2000/svg" xmlns:xlink="http://www.w3.org/1999/xlink" x="0px" y="0px"
	 viewBox="0 0 300 400" style="enable-background:new 0 0 300 400;" xml:space="preserve">
<path id="ruler" d="M182.1,50h-64.3h-10.7v10.7v278.6V350h10.7h64.3h10.7v-10.7V60.7V50H182.1z M182.1,339.3h-64.3v-10.7l0,0
	c0,0,0-2.3,0-5.3s0-5.4,0-5.4l0,0v-10.7l0,0c0,0,0-2.2,0-5.2c0-3,0-5.5,0-5.5l0,0v-10.7l0,0c0,0,0-2.2,0-5.2c0-3,0-5.5,0-5.5l0,0
	v-10.7l0,0c0,0,0-1.9,0-4.9c0-3,0-5.8,0-5.8l0,0v-10.7l0,0c0,0,0-2.6,0-5.6s0-5.1,0-5.1l0,0v-10.7l0,0c0,0,0-2.6,0-5.6s0-5.1,0-5.1
	l0,0V200v-4.2c0,0,0,0.6,0-2.3c0-3,0-2,0-2v-2.2v-10.7l0,0c0,0,0-2.3,0-5.3c0-3,0-5.5,0-5.5l0,0v-10.7l0,0c0,0,0-2,0-5
	c0-3,0-5.8,0-5.8l0,0v-10.7l0,0c0,0,0,0,0-5c0-4.6,0-1,0-4.6v-1v-10.7v-0.8c0,0,0-1.4,0-4.3c0-3,0-2.2,0-2.2v-3.4v-16v-0.7
	c0,0,0,0,0-3s0-1.1,0-1.8l0,0V60.7h64.3V339.3z"/>
<g id="measurement">
</g>
<g>
	<g>
		<path d="M114.4,79.4c9.3,0,18.5,0,27.8,0c1.9,0,1.9-3,0-3c-9.3,0-18.5,0-27.8,0C112.5,76.4,112.5,79.4,114.4,79.4L114.4,79.4z"/>
	</g>
</g>
<g>
	<g>
		<path d="M114.4,113.4c9.3,0,18.5,0,27.8,0c1.9,0,1.9-3,0-3c-9.3,0-18.5,0-27.8,0C112.5,110.4,112.5,113.4,114.4,113.4L114.4,113.4
			z"/>
	</g>
</g>
<g>
	<g>
		<path d="M114.4,147.4c9.3,0,18.5,0,27.8,0c1.9,0,1.9-3,0-3c-9.3,0-18.5,0-27.8,0C112.5,144.4,112.5,147.4,114.4,147.4L114.4,147.4
			z"/>
	</g>
</g>
<g>
	<g>
		<path d="M114.4,181.4c9.3,0,18.5,0,27.8,0c1.9,0,1.9-3,0-3c-9.3,0-18.5,0-27.8,0C112.5,178.4,112.5,181.4,114.4,181.4L114.4,181.4
			z"/>
	</g>
</g>
<g>
	<g>
		<path d="M114.4,215.4c9.3,0,18.5,0,27.8,0c1.9,0,1.9-3,0-3c-9.3,0-18.5,0-27.8,0C112.5,212.4,112.5,215.4,114.4,215.4L114.4,215.4
			z"/>
	</g>
</g>
<g>
	<g>
		<path d="M114.4,249.4c9.3,0,18.5,0,27.8,0c1.9,0,1.9-3,0-3c-9.3,0-18.5,0-27.8,0C112.5,246.4,112.5,249.4,114.4,249.4L114.4,249.4
			z"/>
	</g>
</g>
<g>
	<g>
		<path d="M114.4,283.4c9.3,0,18.5,0,27.8,0c1.9,0,1.9-3,0-3c-9.3,0-18.5,0-27.8,0C112.5,280.4,112.5,283.4,114.4,283.4L114.4,283.4
			z"/>
	</g>
</g>
<g>
	<g>
		<path d="M114.4,317.4c9.3,0,18.5,0,27.8,0c1.9,0,1.9-3,0-3c-9.3,0-18.5,0-27.8,0C112.5,314.4,112.5,317.4,114.4,317.4L114.4,317.4
			z"/>
	</g>
</g>
<g>
	<g>
		<path d="M114.7,96.7c14,0,28,0,42.1,0c1.9,0,1.9-3,0-3c-14,0-28,0-42.1,0C112.7,93.7,112.7,96.7,114.7,96.7L114.7,96.7z"/>
	</g>
</g>
<g>
	<g>
		<path d="M114.7,130.7c14,0,28,0,42.1,0c1.9,0,1.9-3,0-3c-14,0-28,0-42.1,0C112.7,127.7,112.7,130.7,114.7,130.7L114.7,130.7z"/>
	</g>
</g>
<g>
	<g>
		<path d="M114.7,164.7c14,0,28,0,42.1,0c1.9,0,1.9-3,0-3c-14,0-28,0-42.1,0C112.7,161.7,112.7,164.7,114.7,164.7L114.7,164.7z"/>
	</g>
</g>
<g>
	<g>
		<path d="M114.7,198.7c14,0,28,0,42.1,0c1.9,0,1.9-3,0-3c-14,0-28,0-42.1,0C112.7,195.7,112.7,198.7,114.7,198.7L114.7,198.7z"/>
	</g>
</g>
<g>
	<g>
		<path d="M114.7,232.7c14,0,28,0,42.1,0c1.9,0,1.9-3,0-3c-14,0-28,0-42.1,0C112.7,229.7,112.7,232.7,114.7,232.7L114.7,232.7z"/>
	</g>
</g>
<g>
	<g>
		<path d="M114.7,266.7c14,0,28,0,42.1,0c1.9,0,1.9-3,0-3c-14,0-28,0-42.1,0C112.7,263.7,112.7,266.7,114.7,266.7L114.7,266.7z"/>
	</g>
</g>
<g>
	<g>
		<path d="M114.7,300.7c14,0,28,0,42.1,0c1.9,0,1.9-3,0-3c-14,0-28,0-42.1,0C112.7,297.7,112.7,300.7,114.7,300.7L114.7,300.7z"/>
	</g>
</g>
</svg>
