<?xml version="1.0" encoding="utf-8"?>
<!-- Generator: Adobe Illustrator 23.0.1, SVG Export Plug-In . SVG Version: 6.00 Build 0)  -->
<svg version="1.1" id="icon9" xmlns="http://www.w3.org/2000/svg" xmlns:xlink="http://www.w3.org/1999/xlink" x="0px" y="0px"
	 viewBox="0 0 300 400" style="enable-background:new 0 0 300 400;" xml:space="preserve">
<style type="text/css">
	.st0{fill:#FF2ED1;}
</style>
<g id="colour">
	<g>
		<path class="st0" d="M138.6,197.9c-0.1,1.3-0.5,2.6-1,3.7c4.9,0.6,9.7,1.3,14.6,1.9c-0.1-0.8-0.3-1.5-0.4-2.3
			c-0.9-4.8-7.7-7.6-11.8-4.8c-13.3,9.2-21.9,24.1-22,40.5c-0.1,8.2,2.4,16.1,8.9,21.5c5.5,4.6,13.1,7.7,20.1,9.2
			c2.3,0.5,4.9,0.7,7.2,0c1.4-0.4,2.6-1.5,4-1.9c-1,0.3,4-0.2,4.5-0.3c2.1-0.4,4.1-1.1,6.1-2c7.8-3.6,12.8-11.3,13.5-19.8
			c0.8-8.7-4.1-16.8-8.3-24c-4.4-7.7-9.6-14.8-15.3-21.7c-3.9-4.7-12-1.9-13.4,3.5c-0.8,3.2-2.3,6.1-5,8.2c-3.4,2.7-6.6,4.2-8,8.8
			c-0.6,1.9-0.5,4.1-0.9,6c-0.5,2.2-1.4,4.3-2.1,6.5c-1.2,4-1.9,8.1-1.3,12.2c1.3,8.8,8.6,14.8,17.4,15.1
			c9.4,0.3,16.6-5.5,23.1-11.6c4.1-3.9,2.4-12.3-3.5-13.4c-5.2-1-11.3-1.3-16.2-3.3c1.2,0.7,2.4,1.4,3.5,2.1c0,0.1,0.1,0.2,0.1,0.2
			c0.4,1.3,0.7,2.7,1.1,4c0-0.3,0.1-0.7,0.1-1c-0.4,1.3-0.7,2.7-1.1,4c2.2-4.9,5.4-9.4,8.9-13.4c-4.6-1.9-9.1-3.8-13.7-5.7
			c0.1,5.9,1.5,11.2,4.2,16.4c4.8,9.1,18.6,1.1,13.8-8.1c-1.4-2.7-2-5.3-2.1-8.3c-0.1-6.5-8.9-11.1-13.7-5.7
			c-4.8,5.5-14.5,15.8-12.3,23.8c2.5,9,15.5,8.9,22.9,10.3c-1.2-4.5-2.4-8.9-3.5-13.4c-2.3,2.2-8.4,9-12.3,6.8
			c-3-1.7,0.5-8.5,1.3-10.9c0.4-1.3,0.8-2.7,1.1-4.1c0.1-0.6,0.2-1.1,0.2-1.7c0.7-2.3,0.6-2.7-0.4-1.4c-1,1-1,1,0.2,0.2
			c0.4-0.3,0.8-0.5,1.2-0.8c1.3-0.9,2.7-2,3.9-3.1c4.2-3.9,7-9.1,8.5-14.6c-4.5,1.2-8.9,2.4-13.4,3.5c3.6,4.4,7,9.1,10,13.9
			c3,4.8,6.7,10.2,8.5,15.7c1.3,4.1-0.2,8.5-4.3,10.2c-2,0.9-4.1,0.6-6.2,0.9c-2.8,0.4-4.8,1.7-7.4,2.8c1.3-0.4,2.7-0.7,4-1.1
			c-3.9,0.5-9.9-2.3-13.3-4.5c-4.1-2.7-4.9-6.4-4.8-11.2c0.3-10.2,5.8-20.1,14.1-25.9c-3.9-1.6-7.8-3.2-11.8-4.8
			c0.1,0.8,0.3,1.5,0.4,2.3c1.3,6.5,11.8,8.1,14.6,1.9c1.8-4,2.8-7.5,3.2-11.8c0.4-4.3-4-8-8-8C141.9,189.9,139,193.6,138.6,197.9
			L138.6,197.9z"/>
	</g>
</g>
<g id="ink">
	<path d="M195.1,142.4v-8.7c8,0,16.6-5.8,16.6-16.6v-16.6c0-8-5.8-16.6-16.6-16.6h-91.1c-8,0-16.6,5.8-16.6,16.6v16.6
		c0,8,5.8,16.6,16.6,16.6v8.7c-49.6,3.9-49.7,42.5-49.7,57.6c0,8,13.8,116,49.7,116h91.1c35.9,0,49.7-108,49.7-116
		C244.8,184.9,244.7,146.3,195.1,142.4z M186.8,92.3h8.3c8.3,0,8.3,8.3,8.3,8.3v16.6c0,8.3-8.3,8.3-8.3,8.3h-8.3V92.3z M153.6,92.3
		h24.9v33.1h-24.9V92.3z M186.8,133.7v8.3h-74.6v-8.3H186.8z M120.5,92.3h24.9v33.1h-24.9V92.3z M95.6,117.1v-16.6
		c0-8.3,8.3-8.3,8.3-8.3h8.3v33.1h-8.3C95.6,125.4,95.6,117.1,95.6,117.1z M195.1,307.7c-24.9,0-41.4,0-41.4,0s-24.9,0-49.7,0
		S62.5,216.6,62.5,200s0-49.7,49.7-49.7h74.6c49.7,0,49.7,33.1,49.7,49.7S219.9,307.7,195.1,307.7z"/>
	<path d="M154.9,185.4c-1.6-1.3-3.5-2-5.4-2s-3.8,0.7-5.4,2c-1.3,1.2-31.9,27.7-31.9,56c0,26.2,24.4,33.1,37.3,33.1
		s37.3-7,37.3-33.1C186.8,213.1,156.2,186.6,154.9,185.4z M149.5,266.3c0,0-29,0-29-24.9s29-49.7,29-49.7s29,24.9,29,49.7
		S149.5,266.3,149.5,266.3z"/>
</g>
</svg>
